<?xml version="1.0" encoding="UTF-8"?>
<!DOCTYPE svg PUBLIC "-//W3C//DTD SVG 1.1//EN" "http://www.w3.org/Graphics/SVG/1.1/DTD/svg11.dtd">
<!-- Creator: popcornarts -->
<svg xmlns="http://www.w3.org/2000/svg" xml:space="preserve" width="256px" height="256px" version="1.1" style="shape-rendering:geometricPrecision; text-rendering:geometricPrecision; image-rendering:optimizeQuality; fill-rule:evenodd; clip-rule:evenodd"
viewBox="0 0 43165 43165"
 xmlns:xlink="http://www.w3.org/1999/xlink">
 <defs>
  <style type="text/css">
   <![CDATA[
    .fil1 {fill:none}
    .fil0 {fill:#4D4859;fill-rule:nonzero}
   ]]>
  </style>
 </defs>
 <g id="Layer_x0020_1">
  <metadata id="CorelCorpID_0Corel-Layer"/>
  <g id="_914500488">
   <g>
    <path class="fil0" d="M8329 28035l0 -4170c0,-769 315,-1469 821,-1975 507,-507 1207,-821 1976,-821l4951 0 0 830 -4951 0c-540,0 -1032,221 -1389,578 -356,356 -578,848 -578,1388l0 4170 -830 0zm18500 -6966l5252 0c769,0 1468,314 1975,821 506,506 821,1206 821,1975l0 4279 -830 0 0 -4279c0,-540 -222,-1032 -578,-1388 -356,-357 -848,-578 -1388,-578l-5252 0 0 -830z"/>
    <path class="fil0" d="M25902 22579l0 1780c0,246 60,477 170,675 111,202 273,373 471,496l-434 703c-323,-199 -584,-475 -763,-800 -177,-320 -275,-687 -275,-1074l0 -1780 831 0zm-9281 2951c199,-123 361,-294 472,-495 109,-198 170,-429 170,-676l0 -1504 830 0 0 1504c0,388 -98,755 -274,1074 -179,325 -441,601 -763,800l-435 -703z"/>
    <g>
     <path class="fil0" d="M30237 12099c-212,-85 -316,-326 -231,-538 85,-212 326,-315 538,-230 184,74 353,191 486,364 114,147 200,331 244,557l1 0c112,576 0,1940 -371,3015 -138,400 -315,771 -531,1062l-1 1 1 1c-248,332 -553,565 -919,636l0 1c-62,12 -125,19 -190,21 -300,1607 -761,2832 -1454,3850 -753,1104 -1768,1950 -3138,2761 -276,163 -892,473 -1648,691 -494,143 -1053,248 -1621,249 -559,1 -1118,-100 -1616,-240 -753,-211 -1383,-515 -1655,-675 -1220,-717 -2205,-1501 -2989,-2576 -730,-1000 -1275,-2239 -1662,-3897 -48,-3 -96,-10 -143,-18 -485,-90 -881,-452 -1191,-952 -275,-444 -489,-1005 -640,-1570 -244,-916 -325,-1874 -234,-2367 19,-106 77,-246 144,-375l-1 -1c74,-146 172,-302 233,-376 145,-176 406,-202 582,-57 176,145 202,406 57,582 -25,31 -80,124 -133,227l-2 -1 0 1c-34,67 -62,128 -66,150 -73,388 6,1198 221,2006 132,495 314,979 543,1347 193,311 409,530 636,572 64,12 134,9 209,-10l25 -6c224,-47 444,95 491,319 365,1722 889,2967 1599,3940 706,969 1611,1685 2739,2349 234,137 784,401 1460,591 437,122 922,211 1393,210 480,-1 961,-92 1391,-216 670,-193 1213,-466 1456,-610 1268,-751 2199,-1522 2876,-2515 675,-992 1111,-2222 1388,-3891 3,-31 10,-62 20,-93 74,-216 310,-331 527,-257 87,30 166,36 234,23l0 0 2 0c142,-28 281,-145 411,-319l1 0c160,-215 298,-509 411,-837 327,-949 433,-2113 341,-2587l0 0 0 -1c-18,-91 -48,-160 -86,-209 -36,-47 -84,-80 -138,-102zm-16541 4211l5 -1 -5 1z"/>
    </g>
    <g>
     <path class="fil0" d="M14318 27075c-220,60 -447,-70 -507,-290 -60,-220 70,-447 290,-507l2146 -586 2 -1 0 -1c72,-20 137,-42 194,-67l0 0 0 -1c63,-28 123,-59 177,-92 161,-101 366,-76 499,46 570,511 1259,925 2029,1208 746,273 1568,425 2434,425 866,0 1689,-152 2434,-426 772,-283 1462,-698 2033,-1210 146,-131 361,-139 515,-31 47,28 100,55 158,80l29 14c49,19 104,38 165,54l31 10 2158 589c220,60 350,288 290,508 -60,220 -287,350 -507,290l-2159 -590 -27 -6c-90,-24 -181,-56 -272,-94l-36 -13 -11 -5c-602,494 -1306,897 -2082,1182 -836,308 -1756,478 -2719,478 -963,0 -1882,-170 -2719,-478 -775,-284 -1480,-687 -2081,-1182l-12 5 -1 -2c-103,45 -206,82 -306,109l0 -1 -2145 585zm12433 -1439c59,31 109,75 145,126l-145 -126zm2245 16698c230,0 416,186 416,415 0,230 -186,416 -416,416l-14786 0c-229,0 -415,-186 -415,-416 0,-229 186,-415 415,-415l14786 0zm-18070 0c229,0 415,186 415,415 0,230 -186,416 -415,416l-4888 0c-372,0 -722,-74 -1044,-218 -320,-143 -608,-355 -857,-634 -250,-279 -429,-588 -536,-922 -107,-335 -141,-691 -100,-1061l842 -7601c423,-3811 4570,-5035 4582,-5038l15 -4 1877 -513c220,-60 448,70 508,291 60,220 -70,447 -290,507l-1877 513 -3 1c-10,2 -3626,1069 -3988,4334l-843 7601c-28,255 -6,496 65,718 71,223 193,432 364,623 170,190 364,334 578,430 211,94 448,142 707,142l4888 0zm21246 -14350c-221,-60 -350,-288 -290,-508 60,-220 287,-350 507,-290l1844 503 7 2c12,3 4158,1227 4581,5038l843 7601c41,370 7,726 -100,1061 -107,334 -287,643 -536,922 -249,279 -537,491 -857,634 -322,144 -673,218 -1044,218l-4847 0c-229,0 -415,-186 -415,-416 0,-229 186,-415 415,-415l4847 0c258,0 495,-48 707,-142 213,-96 408,-240 578,-430 170,-191 292,-400 364,-623 71,-222 93,-463 64,-718l-842 -7601c-363,-3265 -3978,-4332 -3988,-4334l-1838 -502z"/>
    </g>
    <g>
     <path class="fil0" d="M12541 11763c110,96 216,174 327,234l-164 -4645c-7,-228 173,-419 401,-426 70,-3 137,13 196,42l0 0c1910,942 4493,433 7229,-105 2412,-475 4939,-973 7343,-565 142,24 278,75 406,148 125,71 243,162 351,268 40,38 70,82 90,129 1000,1961 991,2498 967,3953 -5,319 -11,685 -6,1123 89,-81 172,-178 250,-288 374,-529 616,-1344 723,-2249l0 -2 0 0c109,-928 74,-1942 -106,-2843 -202,-1007 -579,-1857 -1126,-2244l-23 -17c-86,-58 -171,-95 -253,-114 -82,-20 -162,-19 -236,-2 -207,47 -414,-70 -483,-266l0 0c-292,-821 -932,-1433 -1713,-1867 -1021,-568 -2275,-834 -3339,-875l-5 -1c-1807,-40 -3244,263 -4874,606 -412,87 -834,176 -1201,249l-38 5c-517,92 -1007,150 -1496,168 -507,18 -1009,-3 -1537,-68l-32 -5c-599,-86 -1299,-258 -1955,-513 -368,-143 -724,-313 -1043,-510 -224,835 -270,1600 -203,2278 104,1036 473,1867 875,2428 95,133 101,304 27,439l-9 22 -29 72 -3 8c-301,790 -412,2024 -256,3170 126,938 428,1799 945,2263l0 0zm27 1011c-202,-98 -386,-226 -572,-388l1 -1 -4 -3c-681,-608 -1067,-1656 -1218,-2772 -169,-1253 -45,-2619 287,-3528 -419,-648 -785,-1549 -894,-2640 -92,-921 0,-1980 401,-3139 15,-55 42,-108 82,-155 146,-175 408,-198 583,-51 349,291 810,533 1301,724 594,231 1229,386 1772,465l17 2c494,60 954,80 1407,64 452,-17 904,-70 1382,-155l23 -5c461,-91 832,-169 1192,-245 1676,-353 3156,-665 5059,-622l17 0c1176,45 2569,343 3712,979 851,473 1568,1134 1971,2016 81,4 164,15 248,35 175,41 354,119 533,241l31 20c736,520 1222,1559 1462,2759 197,984 236,2090 116,3103l0 0c-122,1035 -412,1984 -868,2629 -328,465 -744,782 -1248,883l0 -1c-24,5 -48,7 -73,8 -228,4 -417,-178 -421,-406l-7 -326 0 -1 -6 -326 0 -3c-5,-453 1,-827 6,-1153 22,-1293 29,-1778 -852,-3517 -46,-40 -92,-74 -138,-100 -44,-25 -89,-43 -133,-50 -2254,-382 -4707,101 -7048,561 -2608,514 -5083,1001 -7135,292l160 4552c4,36 3,74 -2,111 -35,227 -247,382 -474,347 -246,-38 -464,-104 -670,-204zm-716 -6444c-87,206 -324,306 -534,223l534 -223z"/>
    </g>
    <path class="fil0" d="M10926 25167l3284 0c229,0 415,186 415,415l0 17167c0,229 -186,415 -415,415l-3284 0c-229,0 -415,-186 -415,-415l0 -17167c0,-229 186,-415 415,-415zm2869 830l-2454 0 0 16337 2454 0 0 -16337z"/>
    <path class="fil0" d="M28996 25167l3284 0c230,0 415,186 415,415l0 17167c0,229 -185,415 -415,415l-3284 0c-229,0 -415,-186 -415,-415l0 -17167c0,-229 186,-415 415,-415zm2869 830l-2453 0 0 16337 2453 0 0 -16337z"/>
   </g>
   <polygon class="fil1" points="43165,0 0,0 0,43165 43165,43165 "/>
  </g>
 </g>
</svg>
