<?xml version='1.0' encoding='utf-8'?>
<svg xmlns="http://www.w3.org/2000/svg" xmlns:dc="http://purl.org/dc/elements/1.1/" xmlns:ns1="http://www.w3.org/1999/02/22-rdf-syntax-ns" xmlns:ns2="http://creativecommons.org/ns" xmlns:ns4="http://www.inkscape.org/namespaces/inkscape" baseProfile="tiny" height="42.0cm" version="1.2" viewBox="0.000000 0.000000 1122.519685 1587.401575" width="29.7cm">
  <g id="plotterstudio-rotation-wrapper" data-plotterstudio-base-viewbox="0.0 0.0 1122.5196850393702 1587.4015748031497" data-plotterstudio-base-width="29.7cm" data-plotterstudio-base-height="42.0cm" data-plotterstudio-rotation="0"><metadata>
    <ns1:RDF>
      <ns2:Work>
        <dc:format>image/svg+xml</dc:format>
        <dc:source>Vsketch with params {'__seed__': 0, 'stroke_thickness': 2, 'canvas_width': 297, 'canvas_height': 420, 'count': 8, 'width': 210}</dc:source>
        <dc:date>2025-10-27T12:56:18.073947</dc:date>
      </ns2:Work>
    </ns1:RDF>
  </metadata>
  <defs />
  <g fill="none" id="layer1" ns4:groupmode="layer" ns4:label="1" stroke="#00ffff" stroke-width="1.1339" style="display:inline">
    <polygon points="919.1161,151.9877 899.6522,153.1841 880.2198,154.8583 860.8344,157.0092 841.5113,159.6349 822.2548,162.7349 803.084,166.3059 784.0029,170.3474 765.0304,174.8553 746.1707,179.8286 727.4424,185.2624 708.8496,191.1555 690.4107,197.5021 672.1331,204.2995 654.0244,211.545 636.099,219.2329 618.3713,227.3571 600.845,235.9157 583.5341,244.9021 566.4524,254.309 549.6035,264.1343 533.001,274.3704 516.6579,285.009 500.581,296.0456 484.7768,307.4758 469.258,319.2907 454.037,331.4806 439.1198,344.0405 424.5126,356.9654 410.23,370.2425 396.2749,383.8688 382.6534,397.8392 369.3818,412.1372 356.4653,426.7569 343.9093,441.6922 331.724,456.9315 319.919,472.4625 308.4989,488.2787 297.4687,504.3737 286.8371,520.7348 276.6126,537.3489 266.7992,554.2092 257.401,571.3086 248.4274,588.6304 239.8803,606.1708 231.7682,623.9123 224.0929,641.8513 216.8509,659.9981 210.0576,678.3175 203.718,696.7949 197.8338,715.4262 192.4105,734.193 187.4496,753.0911 182.9558,772.1019 178.9301,791.2211 175.358,810.5379 172.2647,829.9372 169.6521,849.407 167.5215,868.9393 165.8436,888.9521 164.6723,909.001 163.9719,930.9638 164.0099,945.6998 164.608,945.8286 164.9751,945.3352 165.2531,924.3501 166.0823,903.4284 167.4641,882.5284 169.3981,861.6647 171.5815,843.151 174.1995,824.6938 177.2505,806.3032 180.7329,787.9894 184.7771,769.1807 189.2781,750.4682 194.2298,731.8777 199.631,713.4128 205.4808,695.0772 211.7713,676.896 218.5008,658.8727 225.6656,641.0179 233.3257,623.1973 241.4193,605.5692 249.9381,588.1512 258.8838,570.9399 268.2477,553.9525 278.0242,537.1992 288.2075,520.69 298.7915,504.4347 309.7698,488.4431 321.1359,472.7248 332.883,457.2892 345.0041,442.1454 357.4918,427.3026 370.3389,412.7696 383.5374,398.5551 397.0796,384.6676 410.952,371.1207 425.1513,357.9169 439.6692,345.0642 454.4969,332.5702 469.6196,320.4471 485.0401,308.6926 500.7434,297.3186 516.72,286.3318 532.9604,275.7389 549.4549,265.5461 566.1936,255.7596 583.1666,246.3852 600.3636,237.4285 617.7745,228.8949 635.3887,220.7894 653.1959,213.117 671.0092,205.9504 688.9979,199.2146 707.1373,192.9188 725.4309,187.0618 743.8611,181.6494 762.4169,176.685 781.0875,172.1713 799.8545,168.1127 818.0302,164.632 836.2896,161.5751 854.6154,158.9452 872.9901,156.7446 894.2191,154.7414 915.4943,153.3095 936.7927,152.4503 958.1478,152.1625 958.6767,151.5743 958.1065,151.0299 938.6073,151.2694" />
    <polygon points="841.2437,158.5284 821.9415,161.6384 802.7252,165.2213 783.6028,169.2752 764.5858,173.7978 745.682,178.7874 726.9102,184.239 708.2744,190.1515 689.7932,196.5189 671.474,203.3385 653.3279,210.6063 635.3658,218.3178 617.5987,226.4683 600.0373,235.053 582.6921,244.0666 565.5737,253.5038 548.6923,263.3588 532.055,273.6276 515.6783,284.3002 499.5688,295.372 483.7362,306.8363 468.1871,318.6885 452.937,330.9169 437.9891,343.5189 423.3582,356.4819 409.0504,369.8005 395.0741,383.4667 381.4222,397.4887 368.1195,411.8423 355.1739,426.5189 342.5933,441.5095 330.3853,456.805 318.5572,472.3963 307.1164,488.2739 296.0696,504.4281 285.4237,520.8492 275.1849,537.5273 265.3596,554.4522 255.9536,571.6137 246.9726,589.0014 238.4222,606.6048 230.3075,624.4133 222.6333,642.416 215.3759,660.6763 208.5705,679.1139 202.2227,697.714 196.3375,716.4616 190.9172,735.3489 185.9642,754.368 181.4834,773.4999 177.4759,792.7405 173.8911,812.3915 170.8009,832.1264 168.2073,851.9327 166.1118,871.7979 164.425,893.0737 163.3094,914.3909 162.7127,942.7561 162.7232,945.5196 163.2068,946.5003 164.0389,946.9576 164.99,946.8963 165.7565,946.336 166.1035,945.4484 166.4674,921.5149 167.5325,897.8552 169.3099,874.1778 171.7999,850.5345 176.6211,816.6947 182.8979,783.0944 186.9586,764.7729 191.4523,746.5527 196.3763,728.4441 201.7281,710.4572 207.5045,692.6022 213.7023,674.8891 220.318,657.3278 227.348,639.9281 234.985,622.2591 243.0362,604.8081 251.5221,587.5307 260.411,570.4913 269.7108,553.6725 279.416,537.0843 289.5208,520.7365 300.0361,504.6136 310.9227,488.7757 322.2084,473.1824 333.8697,457.8679 345.8806,442.8647 358.252,428.1574 370.9766,413.7545 384.0677,399.6428 397.4766,385.8748 411.2157,372.4361 425.2544,359.3551 439.6287,346.5983 454.3083,334.194 469.2846,322.1496 484.5246,310.4901 500.0671,299.1858 515.8794,288.262 531.9266,277.7413 548.2498,267.5968 564.7882,257.8663 581.584,248.5251 598.6015,239.5941 615.8307,231.0787 633.2615,222.9838 650.8557,215.326 668.1529,208.2842 685.6113,201.6523 703.2213,195.4339 720.9442,189.6415 738.8275,184.2595 756.8328,179.3006 774.9206,174.7747 793.1395,170.6696 813.5261,166.6068 833.9825,163.0852 854.554,160.097 875.1969,157.6496 895.8669,155.7473 916.5796,154.3873 937.2001,153.5737 958.321,153.2845 959.4196,152.6824 959.8075,151.4875 959.2722,150.3549 958.1065,149.8961 938.5605,150.1363 919.0264,150.8569 899.5159,152.0572 880.0408,153.7366 860.6128,155.8941" />
    <polygon points="652.6306,209.668 634.6285,217.4046 616.822,225.5817 599.2255,234.1926 581.8427,243.2354 564.6876,252.703 547.7705,262.5898 531.1018,272.8897 514.6915,283.5964 498.5495,294.7036 482.6856,306.2045 467.1093,318.0921 451.8302,330.3592 436.8575,342.9985 422.203,355.9997 407.8699,369.3599 393.8698,383.0687 380.1876,397.1425 366.8538,411.5519 353.8792,426.2856 341.274,441.3316 329.0434,456.6836 317.1926,472.3354 305.7311,488.2746 294.6679,504.4881 284.0057,520.9726 273.7548,537.7116 263.9177,554.7014 254.5041,571.9251 245.516,589.3789 236.9624,607.0455 228.8452,624.921 221.1724,642.9876 213.8985,661.3653 207.0815,679.9214 200.7271,698.641 194.8403,717.5089 189.4225,736.5207 184.479,755.6574 180.0111,774.9146 176.0231,794.273 172.4261,814.2668 169.34,834.3459 166.7671,854.4972 164.7089,874.7075 163.0182,897.3677 161.9746,920.0631 161.5752,945.3429 161.7993,946.4033 162.4077,947.3047 163.7661,948.0583 165.3176,947.9829 166.5989,947.0981 167.219,945.6739 167.5312,923.9883 168.3628,903.2473 169.7576,882.2949 171.7049,861.417 174.2171,840.5084 177.285,819.6741 180.9011,798.9585 185.0729,778.3169 189.1475,760.4583 193.6269,742.728 198.515,725.106 203.8184,707.573 209.5263,690.1675 215.6359,672.8989 222.1437,655.7764 229.0347,638.837 236.636,621.3467 244.6438,604.072 253.0789,586.9682 261.9238,570.0727 271.1736,553.3954 280.8073,536.9718 290.8497,520.7595 301.2801,504.794 312.0925,489.0847 323.2804,473.6406 334.819,458.4945 346.738,443.6073 359.0124,429.0118 371.6352,414.7165 384.599,400.7298 397.8963,387.0597 411.4976,373.735 425.3934,360.7619 439.5971,348.1265 454.1235,335.817 468.9421,323.8607 484.0442,312.2647 499.4212,301.0356 515.039,290.1968 530.9382,279.7202 547.0592,269.6451 563.4439,259.9454 580.0573,250.6429 596.863,241.7568 613.9046,233.2641 631.1457,225.1841 648.5487,217.5333 665.3186,210.6261 682.2708,204.0947 699.3401,197.9642 716.5454,192.2268 733.9067,186.8769 751.3572,181.9351 768.9457,177.3875 786.6046,173.2516 807.7538,168.8556 829.0449,165.034 850.4325,161.796 871.9007,159.1442 893.3733,157.0855 914.8941,155.6131 936.176,154.7357 958.5126,154.4028 959.5134,154.0599 960.3163,153.3768 960.8153,152.444 960.9376,151.3933 960.666,150.3708 960.0385,149.5191 959.146,148.9582 958.1064,148.7622 938.5137,149.0033 918.9328,149.7263 899.3794,150.9304 879.8578,152.6153 860.3835,154.78 840.9683,157.423 821.624,160.5428 802.3624,164.1374 783.1949,168.2048 764.1333,172.7424 745.1891,177.7474 726.3774,183.2159 707.7022,189.1465 689.1786,195.5347 670.8177,202.3766" />
    <polygon points="771.3047,945.2116 770.7361,944.6934 759.2962,945.2574 747.9634,946.944 736.8551,949.7357 726.0714,953.6073 715.7241,958.5188 705.9065,964.4257 696.7203,971.267 688.2484,978.9808 680.5593,987.511 673.7484,996.7574 667.882,1006.6302 663.0158,1017.0365 659.169,1027.9739 656.4289,1039.2435 654.7858,1051.1688 654.3994,1058.1947 654.5312,1061.4717 655.1081,1061.608 655.4917,1061.1519 656.1837,1048.5141 658.2408,1036.0751 660.9634,1025.9996 664.5864,1016.2118 669.3649,1006.2619 675.0692,996.8209 681.6547,987.9628 689.0521,979.7806 697.1806,972.3576 705.9802,965.744 715.3641,960.0037 725.2595,955.1814 734.9043,951.5406 744.8432,948.7747 757.721,946.565 770.8297,945.8201" />
    <polygon points="752.2764,1059.5647 748.4357,1058.6526 744.5089,1058.2498 742.6246,1058.3373 741.2988,1059.1606 740.6921,1060.2239 740.5903,1061.4438 741.0124,1062.5929 741.8765,1063.4549 742.9781,1063.8672 748.7027,1064.4794 753.2796,1065.9787 757.8933,1068.6444 761.8038,1072.2239 764.3646,1075.7162 766.2707,1079.6046 767.5124,1084.0343 767.981,1089.0555 768.8368,1090.5054 770.2892,1091.2032 771.8907,1090.9951 773.1187,1089.9462 773.5745,1088.4006 772.9196,1082.1517 770.9847,1076.1738 767.8514,1070.7229 763.6596,1066.0424 758.3255,1062.1795" />
    <polygon points="749.6609,1060.0463 746.2892,1059.5074 743.2374,1059.371 742.16,1059.8992 741.7227,1061.3493 742.6117,1062.5714 748.254,1063.2286 752.7155,1064.5172 757.1118,1066.7397 760.9813,1069.7426 764.4386,1073.7504 766.9993,1078.3827 768.492,1083.1364 769.2902,1089.294 770.1242,1089.99 771.2057,1090.0403 772.0984,1089.4278 772.4407,1088.4007 771.8383,1082.5202 770.0592,1076.8871 767.1747,1071.7273 763.3052,1067.2585 758.4568,1063.5717 752.946,1060.9772" />
    <polygon points="748.991,1062.2214 754.3833,1063.9878 758.4914,1066.2899 762.1325,1069.2762 765.1683,1072.8181 767.5401,1076.8265 769.5118,1082.4912 770.2003,1088.5784 770.8297,1088.9643 771.3068,1088.4008 770.7557,1082.8859 769.1257,1077.5887 766.481,1072.7181 762.9287,1068.4689 758.5554,1064.9712 753.5719,1062.4171 747.9543,1060.8713 744.5487,1060.5208 742.9945,1060.6671 742.8503,1061.2053 743.2399,1061.6081" />
    <polygon points="739.9203,1060.8474 736.583,1061.8827 733.5187,1063.5617 730.8472,1065.8198 728.6479,1068.6145 727.0616,1071.7931 726.1163,1075.4587 726.1087,1078.3692 726.6332,1078.5135 727.0389,1078.1463 727.4606,1074.4108 728.6327,1070.9901 729.9707,1068.6703 731.6647,1066.6055 734.1843,1064.4801 737.0795,1062.9039 740.1533,1061.9571 743.6611,1061.5676 743.9506,1060.9263 743.3968,1060.4971" />
    <polygon points="734.4586,1067.1077 738.4246,1064.8084 740.9689,1064.1105 744.1322,1063.8027 745.5539,1062.9076 746.2082,1061.4549 745.974,1059.8753 744.9262,1058.6749 743.3965,1058.2294 739.175,1058.6872 735.1491,1060.0375 731.5053,1062.2179 728.4124,1065.1274 725.8676,1068.9085 724.2593,1073.1684 723.6729,1078.1236 723.9635,1079.2214 724.6588,1080.1146 725.6662,1080.6701 726.8114,1080.7796 727.9057,1080.4249 728.7668,1079.6676 729.2863,1078.4984 729.7324,1074.6527 730.591,1072.158 732.2278,1069.4213" />
    <polygon points="725.6386,1072.4467 724.8179,1077.1964 724.86,1078.4018 725.3602,1079.2215 726.7322,1079.647 727.9406,1078.8705 728.5629,1074.6773 729.4917,1071.839 731.1317,1068.9941 733.3445,1066.5678 735.5097,1064.9741 737.9472,1063.777 740.6926,1063.0081 743.7898,1062.7197 744.6606,1062.2064 745.0804,1061.3307 744.954,1060.3714 744.3249,1059.6363 743.3967,1059.3632 739.5519,1059.7658 735.8734,1060.9546 732.5167,1062.8805 729.634,1065.4563 727.2525,1068.7345" />
    <polygon points="770.4397,1086.7284 769.2071,1087.6655 768.2619,1096.4968 766.014,1104.1569 764.3148,1107.8856 762.2489,1111.4579 759.8466,1114.8133 757.1506,1117.8991 753.9931,1120.862 750.5748,1123.472 746.9104,1125.7236 743.0105,1127.6049 739.0785,1129.0373 735.0248,1130.0763 725.6986,1131.1409 724.9464,1131.954 724.8544,1133.0579 725.4616,1133.9843 726.5067,1134.3403 731.1183,1134.1078 735.6832,1133.4136 740.1553,1132.2647 744.4859,1130.6741 748.6386,1128.6553 752.5644,1126.2321 756.2304,1123.4247 759.596,1120.2636 762.6805,1116.7126 765.3878,1112.8615 767.6868,1108.7535 769.552,1104.4355 771.0533,1099.6071 772.0148,1094.6431 772.4405,1088.3799 771.9183,1087.1761" />
    <polygon points="770.1909,1088.2612 769.9417,1092.8903 769.2574,1097.2978 768.1158,1101.648 766.5298,1105.8645 762.6628,1112.888 757.5769,1119.0861 751.4865,1124.2201 744.5716,1128.1592 740.2239,1129.861 735.7193,1131.0889 731.1614,1131.8234 726.3507,1132.0934 725.9414,1132.7182 726.5067,1133.2064 730.932,1132.987 735.3178,1132.3307 739.6136,1131.2453 743.7846,1129.7393 747.7864,1127.8284 751.5765,1125.5334 755.1214,1122.8753 758.3864,1119.88 761.3588,1116.5531 763.9856,1112.9471 766.2408,1109.0977 768.102,1105.043 769.5813,1100.7168 770.612,1096.2622 771.2159,1091.2561 771.1395,1088.0003 770.5914,1087.8554" />
    <polygon points="759.2369,1113.7528 756.6652,1116.7643 753.5614,1119.7392 750.1891,1122.3601 746.5399,1124.6333 742.7008,1126.5048 738.9324,1127.8951 735.047,1128.9136 730.7436,1129.5871 726.134,1129.829 725.0088,1130.2306 723.8587,1131.6179 723.7773,1133.4181 724.7974,1134.9037 726.5068,1135.4741 731.3042,1135.2286 736.0476,1134.4963 740.6956,1133.2835 745.1922,1131.6049 749.4979,1129.4752 753.5609,1126.9201 757.3456,1123.9619 760.8063,1120.6363 764.003,1116.8539 766.7846,1112.7567 769.1186,1108.3935 770.983,1103.8056 772.4895,1098.4509 773.3534,1092.9599 773.5601,1088.1163 772.6821,1086.3378 771.5656,1085.6908 770.2742,1085.6064 769.0799,1086.1047 768.2316,1087.082 767.9247,1088.0711 767.7235,1092.2771 767.1541,1096.2532 765.075,1103.4474 763.4611,1107.0638 761.5092,1110.5094" />
    <polygon points="719.0123,1130.5357 711.7599,1129.365 704.5303,1127.393 697.5534,1124.6581 692.1617,1121.9157 687.0274,1118.7172 682.1889,1115.0867 677.6826,1111.0513 673.6,1106.7083 669.8851,1102.0093 666.5863,1097.0093 663.7408,1091.7718 660.6538,1084.429 658.4159,1076.7539 657.0927,1069.0787 656.5395,1060.5119 655.8007,1059.6025 654.649,1059.3867 653.6311,1059.967 653.23,1061.0679 653.5938,1068.357 654.6809,1075.5738 656.4805,1082.6467 658.9748,1089.5055 662.139,1096.0821 665.9417,1102.3114 670.3452,1108.1315 675.3058,1113.4847 680.8438,1118.3733 686.846,1122.6796 693.2512,1126.3596 699.9944,1129.376 707.3354,1131.7881 714.8897,1133.4136 724.1386,1134.302 726.7282,1134.3257 727.7221,1133.8288 728.1491,1133.0797 728.1539,1132.2176 727.7353,1131.4639 727.0009,1131.0122" />
    <polygon points="704.3018,1128.5116 698.5791,1126.3502 692.5554,1123.4303 686.8334,1119.9561 681.464,1115.9585 676.4949,1111.4731 671.9894,1106.5627 667.9642,1101.2516 664.4509,1095.5799 661.4884,1089.6104 658.8826,1082.7264 657.005,1075.617 655.8765,1068.3887 655.4807,1060.9264 654.8596,1060.5016 654.3638,1061.0678 654.7149,1068.1722 655.7646,1075.2111 657.5027,1082.1125 659.9109,1088.8054 662.9665,1095.2287 666.6419,1101.323 670.8999,1107.0255 675.6963,1112.278 681.0103,1117.0519 686.7704,1121.2769 692.9234,1124.9132 699.4026,1127.9215 706.2535,1130.3053 713.3091,1131.9891 720.9539,1132.9924 726.9084,1133.0391 727.0459,1132.4658 726.6035,1132.081 718.302,1131.597 710.1893,1130.1724" />
    <polygon points="658.2125,1068.8909 657.7551,1060.8227 657.4249,1059.7169 656.0676,1058.4673 654.2323,1058.3168 652.6918,1059.3255 652.0961,1061.0679 652.4727,1068.5402 653.5984,1075.9408 655.4609,1083.1871 658.0417,1090.2097 661.3146,1096.9376 665.2466,1103.3029 669.7979,1109.2411 674.9226,1114.6923 680.6863,1119.6933 686.9352,1124.0799 693.5972,1127.8013 700.6053,1130.8208 708.4531,1133.251 716.525,1134.8017 726.5515,1135.4738 727.6361,1135.2392 728.5502,1134.6035 729.2191,1133.4615 729.2966,1132.1403 728.7636,1130.9249 727.7391,1130.087 726.7287,1129.8136 719.1628,1129.4115 713.45,1128.5536 707.1875,1127.0344 701.0679,1124.9247 695.0188,1122.1692 689.2642,1118.8423 683.8578,1114.9752 678.8502,1110.6039 674.0622,1105.5041 669.8338,1099.9681 666.1734,1094.0071 663.1491,1087.7318 660.8351,1081.3768 659.1569,1074.8252" />
    <polygon points="652.9505,1063.0977 654.1959,1063.8072 655.6291,1063.8168 656.8865,1063.1213 657.6403,1061.9023 658.4227,1048.9004 660.3219,1037.172 663.5256,1025.4558 667.9687,1014.1513 672.3872,1005.4818 677.5521,997.2004 683.4124,989.3957 689.9038,982.147 696.928,975.5415 704.4659,969.5764 712.4836,964.2736 720.9231,959.6717 732.8462,954.6397 745.2953,950.9977 757.7281,948.8468 771.666,947.9395 773.1783,946.7059 773.5347,944.7871 772.5664,943.0926 770.7361,942.4257 758.9307,943.0149 747.2387,944.7766 735.7839,947.6921 724.6724,951.7345 714.0185,956.8628 703.9311,963.0239 694.5039,970.1607 685.8365,978.1975 677.9202,987.172 670.946,996.9015 664.9878,1007.2843 660.1062,1018.2146 656.2012,1030.1303 653.5756,1042.3917 652.6213,1049.9192 652.1502,1057.4884 652.1243,1061.4681" />
    <polygon points="653.4302,1054.2126 653.2312,1061.1336 653.7361,1062.2801 654.4978,1062.7142 655.3782,1062.7103 656.1387,1062.2668 656.5746,1061.506 657.2451,1049.2523 659.0524,1037.6897 662.0798,1026.2312 666.2795,1015.1485 670.8768,1005.8601 676.3147,997.0024 682.5359,988.6763 689.4681,980.972 697.0251,973.967 705.1833,967.6722 713.8761,962.1391 723.0326,957.4127 734.4932,952.8711 746.406,949.586 758.4265,947.6275 771.2128,946.8941 772.1696,946.1816 772.4236,945.0196 771.8513,943.9729 770.7361,943.5596 759.1122,944.1363 747.6024,945.86 736.3195,948.7137 725.3743,952.6696 714.8741,957.6887 704.9218,963.7219 695.6151,970.7099 687.0427,978.587 679.2388,987.3394 672.3439,996.8292 666.4313,1006.9557 661.5574,1017.6211 657.6783,1029.0437 654.9913,1040.8 654.0182,1047.482" />
    <polygon points="882.4445,980.09 874.7407,974.7369 866.7841,969.7744 858.5879,965.2107 850.179,961.0608 841.5746,957.3329 832.641,953.9823 823.5462,951.0857 814.3167,948.6517 804.9799,946.6873 794.8677,945.1064 784.6885,944.0754 770.8837,943.5596 769.5231,944.0631 769.078,944.8604 769.1094,945.773 769.6083,946.5378 770.4308,946.9344 781.7618,947.2891 792.6233,948.2562 803.4978,949.8752 814.2866,952.1419 829.3747,956.4652 844.0438,962.0473 851.9436,965.6635 859.6919,969.6596 867.2184,973.9995 874.5586,978.7034 881.6458,983.7288 888.5133,989.0993 895.099,994.7661 901.4336,1000.7558 907.4396,1006.9922 913.1483,1013.5018 918.5473,1020.2704 923.642,1027.308 928.386,1034.5508 932.7872,1042.0069 936.8361,1049.6601 940.5238,1057.4936 944.2081,1066.4413 947.4304,1075.5974 950.1622,1084.8803 952.4128,1094.3223 954.153,1103.7802 955.4043,1113.3453 956.1429,1122.6932 956.4626,1133.0615 957.1544,1134.0463 958.3248,1134.3267 959.3877,1133.7623 959.811,1132.6357 959.5806,1123.3071 958.8898,1113.9973 957.7403,1104.7331 956.135,1095.5368 954.0787,1086.4347 951.5747,1077.4415 948.6311,1068.5864 945.2528,1059.8838 941.4507,1051.362 937.231,1043.0348 932.6074,1034.9293 927.5874,1027.0586 922.1873,1019.4484 916.4159,1012.1108 910.2919,1005.07 903.8254,998.3371 897.0031,991.9036 889.8703,985.8162" />
    <polygon points="896.708,993.1635 889.6879,987.13 882.3792,981.4495 874.7998,976.1357 866.9679,971.2016 858.9025,966.659 850.6233,962.5191 842.1503,958.7918 833.4504,955.4672 824.5966,952.5777 815.6104,950.1304 806.5178,948.1319 797.1159,946.5547 787.65,945.4565 777.1896,944.8044 770.3289,944.8608 770.195,945.4448 770.6599,945.8228 780.5425,946.0851 790.3155,946.8567 800.0569,948.1434 809.7172,949.9406 818.2063,951.9605 826.5919,954.3746 834.8555,957.1776 842.9793,960.3635 851.2175,964.055 859.2744,968.1437 867.1178,972.6132 874.7423,977.4607 882.1175,982.6666 889.2384,988.2275 896.0765,994.1212 902.6273,1000.3436 908.8543,1006.8588 914.7647,1013.6726 920.3347,1020.7576 925.5608,1028.1093 930.4259,1035.7047 934.9152,1043.5194 939.0223,1051.5416 942.7407,1059.7594 945.9328,1067.8078 948.7509,1076.0026 951.186,1084.3193 953.2311,1092.7326 955.1146,1102.6143 956.4635,1112.583 957.2727,1122.5873 957.5483,1132.7144 958.1515,1133.2049 958.6772,1132.6357 958.4498,1123.3971 957.7685,1114.1808 956.6351,1105.0091 955.0514,1095.9005 953.0217,1086.8809 950.5521,1077.9755 947.6476,1069.2024 944.3154,1060.5826 940.562,1052.1336 936.3993,1043.8827 931.8342,1035.8432 926.8813,1028.0411 921.5509,1020.4918 915.8559,1013.2137 909.8075,1006.2216 903.4252,999.538" />
    <polygon points="942.2191,1064.4593 945.6714,1073.881 948.5985,1083.4476 951.003,1093.1588 952.8584,1102.8685 954.1913,1112.6636 954.9693,1122.0106 955.3898,1133.4362 956.578,1135.0244 958.5164,1135.4449 960.2559,1134.4919 960.9449,1132.6357 960.7113,1123.2166 960.0113,1113.8168 958.8464,1104.4633 957.2197,1095.1789 955.135,1085.9865 952.5974,1076.9087 949.6133,1067.9677 946.1899,1059.1855 942.3357,1050.5837 938.0601,1042.1834 933.3755,1034.0085 928.2898,1026.0725 922.8172,1018.3981 916.9711,1011.0042 910.7659,1003.909 904.2168,997.1299 897.2827,990.6326 890.0358,984.492 882.4913,978.7209 874.6681,973.3336 866.5857,968.3435 858.2643,963.7632 849.7247,959.604 840.988,955.8762 831.811,952.4992 822.4725,949.5982 812.9973,947.181 803.4104,945.2539 792.5293,943.6789 781.5793,942.7353 770.6142,942.4281 769.5839,942.6682 768.7108,943.272 767.9895,944.54 767.9953,946.0025 768.7293,947.2674 769.9962,947.9981 780.862,948.3733 789.8556,949.0886 799.245,950.3111 808.5885,952.0198 817.918,954.2297 827.1202,956.9211 836.1701,960.0869 845.0707,963.7304 852.6506,967.2736 860.062,971.1568 867.3152,975.3876 874.3438,979.9271 881.1833,984.7984 887.7711,989.9569 894.1182,995.4087 900.233,1001.1635 911.5306,1013.3409 921.6875,1026.4848 930.6214,1040.4887 938.2723,1055.2663" />
    <polygon points="921.5534,1275.7572 914.2783,1288.5522 906.3939,1300.972 897.9153,1312.994 888.8576,1324.5955 879.2516,1335.7373 869.1101,1346.4045 858.4787,1356.5507 847.3614,1366.1735 835.7898,1375.245 823.7975,1383.7395 811.4005,1391.6457 798.6407,1398.9367 785.542,1405.5997 772.1282,1411.6219 758.7781,1416.8612 745.1947,1421.4622 731.4158,1425.4125 717.458,1428.7075 701.9665,1431.56 686.3475,1433.6026 670.6661,1434.8284 654.8633,1435.2418 654.3651,1435.8423 654.9346,1436.3717 669.8552,1436.0048 684.7399,1434.9054 699.5563,1433.0756 714.2612,1430.5208 728.8228,1427.2468 743.2097,1423.2603 757.3797,1418.573 771.3024,1413.1952 784.9441,1407.1401 798.2719,1400.4222 811.2569,1393.0557 823.8611,1385.0622 836.0604,1376.457 847.8193,1367.2652 859.1125,1357.5068 869.9153,1347.2028 880.2064,1336.372 889.9526,1325.0483 899.1301,1313.2591 907.7168,1301.0328 915.6939,1288.3959 923.038,1275.3852 929.7334,1262.0291 935.7641,1248.36 941.1343,1234.3574 945.8068,1220.1068 949.7693,1205.6465 953.0142,1191.0047 955.5633,1176.0069 957.3583,1160.9003 958.4326,1144.811 958.5098,1132.2231 957.9152,1132.093 957.5454,1132.5765 957.0238,1150.3494 955.4658,1168.0238 953.6248,1181.1659 951.208,1194.222 947.9399,1208.2559 944.0097,1222.1111 939.4248,1235.7636 934.1926,1249.1894 928.1976,1262.6236" />
    <polygon points="911.5054,1288.7549 903.908,1300.6054 895.7816,1312.0629 887.1094,1323.1511 877.9472,1333.7986 868.2971,1344.006 858.2245,1353.7105 847.711,1362.9355 836.7794,1371.661 825.4534,1379.8682 813.7576,1387.5391 801.7173,1394.6572 789.3587,1401.207 776.7086,1407.1743 762.1734,1413.1712 747.3727,1418.39 732.3197,1422.8286 717.0261,1426.481 701.6806,1429.3094 686.2089,1431.337 671.1015,1432.5344 654.2214,1433.0603 652.5833,1434.2158 652.1192,1436.166 653.0613,1437.9355 654.9346,1438.6394 670.039,1438.2662 685.1067,1437.1479 700.1007,1435.2873 714.9847,1432.6889 729.7222,1429.3589 744.2775,1425.3056 758.6149,1420.5389 772.6996,1415.0702 786.4971,1408.913 799.974,1402.0823 813.0972,1394.5947 825.8318,1386.4707 838.1529,1377.7258 850.0275,1368.3834 861.4264,1358.4663 872.3219,1347.9987 882.7359,1336.9521 892.5916,1325.3996 901.8599,1313.3755 910.5203,1300.9066 918.5537,1288.0202 925.9362,1274.7545 932.6516,1261.139 938.6835,1247.2072 944.1083,1232.7303 948.795,1217.9979 952.7316,1203.0475 955.9082,1187.9175 958.4651,1171.5038 960.1279,1154.9718 960.7406,1143.8041 960.9449,1132.6215 960.7248,1131.5301 960.1039,1130.6102 958.8159,1129.8799 957.339,1129.8976 956.0688,1130.6586 955.3557,1131.9562 954.865,1148.3249 953.7279,1163.0766 951.807,1178.1394 949.1272,1193.0858 945.6729,1207.9646 941.4666,1222.6486 936.5089,1237.1279 930.8318,1251.3083 924.9677,1264.1055 918.5249,1276.5876" />
    <polygon points="774.4415,1409.4042 762.1006,1414.4124 749.5507,1418.8707 736.816,1422.7704 723.9508,1426.0969 706.8695,1429.5962 689.6442,1432.0987 672.3633,1433.5995 654.6528,1434.1268 653.5884,1434.7604 653.236,1435.948 653.7827,1437.0595 654.9346,1437.5055 669.9489,1437.1354 684.9268,1436.0263 699.8319,1434.181 714.6243,1431.6046 729.2756,1428.3021 743.7428,1424.2833 757.9947,1419.557 772.0001,1414.1333 785.7213,1408.0264 799.1219,1401.2531 812.1727,1393.8281 824.8453,1385.7676 837.1055,1377.0927 848.9208,1367.827 860.2683,1357.9883 871.1175,1347.6026 881.4701,1336.6642 891.2699,1325.228 900.4929,1313.3217 909.1168,1300.9745 917.1223,1288.2132 924.4858,1275.0754 931.1917,1261.59 937.2233,1247.7898 942.6215,1233.5509 947.301,1219.0638 951.2514,1204.3612 954.4637,1189.476 957.0192,1173.7901 958.7542,1157.9885 959.7443,1139.0024 959.8082,1132.5272 959.3102,1131.42 958.5029,1130.9704 957.5797,1131.0094 956.813,1131.5253 956.4288,1132.3696 955.9455,1149.3449 954.5628,1165.9421 952.2509,1182.5266 949.0217,1198.9571 945.7576,1212.0553 941.9197,1224.9655 937.4986,1237.7197 932.5109,1250.2631 926.5898,1263.357 920.0371,1276.1802 912.8796,1288.6759 905.1503,1300.7907 896.8524,1312.5233 887.9859,1323.8704 878.5876,1334.7812 868.7002,1345.2094 858.3493,1355.1344 847.5381,1364.5558 836.2912,1373.4526 824.6339,1381.8044 812.5926,1389.5924 800.1947,1396.7991 787.468,1403.408" />
    <polygon points="625.1469,1436.6022 639.1148,1437.2506 654.9802,1437.5053 656.1591,1437.0047 656.6104,1436.19 656.565,1435.2598 656.0364,1434.493 655.1796,1434.119 629.0192,1433.4155 603.2213,1431.3589 577.4791,1427.9256 551.985,1423.1364 529.924,1417.8443 508.1611,1411.5435 486.6852,1404.2306 465.5994,1395.9409 444.0774,1386.281 423.0465,1375.594 402.5814,1363.9204 382.6775,1351.2575 363.4077,1337.6491 344.8402,1323.146 326.993,1307.7652 309.8863,1291.521 293.6238,1274.515 278.1984,1256.7462 263.646,1238.2556 249.9833,1219.0612 237.277,1199.2566 225.524,1178.837 214.7816,1157.902 205.0591,1136.4743 196.7453,1115.5925 189.4002,1094.3506 183.0393,1072.7935 177.6759,1050.9668 172.6225,1024.7872 169.0072,998.4009 166.8376,971.9171 166.0936,945.0234 165.4774,943.9367 164.2888,943.5639 163.1623,944.1039 162.7087,945.2641 163.3044,969.4703 165.0897,993.6178 168.0603,1017.6483 172.209,1041.5037 177.5258,1065.1262 183.9978,1088.4587 191.6094,1111.4447 200.342,1134.0285 210.1747,1156.1557 221.0836,1177.7725 233.0422,1198.8267 246.0218,1219.2674 259.9908,1239.0451 274.9179,1258.1149 290.7623,1276.4247 307.4878,1293.9331 325.088,1310.6284 343.4863,1326.4339 362.6439,1341.3162 382.5115,1355.2365 403.0407,1368.1612 424.1818,1380.0587 445.8799,1390.8986 468.0892,1400.6579 490.9061,1409.3656 514.1268,1416.9308 537.6941,1423.3351 561.55,1428.5626 586.2893,1432.6929 611.203,1435.5574" />
    <polygon points="192.5937,1110.8303 201.2819,1133.3351 211.0631,1155.3826 221.9169,1176.9267 233.8154,1197.9118 246.7301,1218.2873 260.6297,1238.004 275.4808,1257.0144 291.2475,1275.2725 307.8891,1292.7318 325.3818,1309.3656 343.6678,1325.1174 362.7056,1339.9518 382.4524,1353.835 402.8575,1366.7313 423.8716,1378.6093 445.4405,1389.4388 467.5189,1399.197 490.1001,1407.8763 513.0812,1415.4332 536.4066,1421.8491 560.0197,1427.1087 584.0765,1431.2302 608.3122,1434.1518 633.5476,1435.9049 648.2111,1436.3254 655.356,1436.2043 655.4848,1435.6061 654.9951,1435.2393 627.994,1434.4955 601.0971,1432.2689 578.8653,1429.2939 556.793,1425.3045 533.792,1420.021 511.0722,1413.6362 488.6861,1406.1648 466.6858,1397.6242 444.8357,1387.8982 423.4929,1377.1211 402.7012,1365.3157 382.5102,1352.5101 362.9679,1338.7348 344.1209,1324.0225 326.014,1308.4084 308.6904,1291.9295 292.1963,1274.6308 276.5703,1256.5541 261.8441,1237.7372 248.0528,1218.2246 235.2292,1198.0629 223.4002,1177.2934 212.6013,1155.9786 202.8544,1134.1626 194.3061,1112.2381 186.8203,1089.9285 180.4142,1067.2852 175.1027,1044.3605 171.1106,1022.5495 168.1093,1000.5802 166.7392,986.7862 165.7599,972.959 165.1726,959.1246 164.9746,945.2153 164.3832,944.694 163.8425,945.2641 164.4352,969.3805 166.211,993.4349 169.1663,1017.3768 173.2937,1041.1447 178.5832,1064.6813 185.0211,1087.9261" />
    <polygon points="180.3051,1057.3736 177.2508,1043.5485 174.599,1029.6406 172.3521,1015.6616 170.5119,1001.6233 169.0878,987.6273 168.0679,973.5961 167.463,959.8718 167.2056,944.7946 166.8439,943.8083 166.148,943.0215 165.2133,942.5421 164.172,942.4357 163.1597,942.7161 162.3215,943.3431 161.7681,944.2316 161.5748,945.2641 162.1738,969.564 163.9684,993.8011 166.9545,1017.9203 171.1246,1041.8633 176.4697,1065.5756 182.975,1088.9922 190.6268,1112.0636 199.4043,1134.7266 209.2871,1156.9299 220.2513,1178.6196 232.2702,1199.7431 245.317,1220.2522 259.358,1240.0938 274.3568,1259.2169 290.2816,1277.581 307.0889,1295.1358 324.794,1311.89 343.3078,1327.7517 362.5826,1342.6795 382.5713,1356.6369 403.2251,1369.5898 424.4935,1381.5067 446.3245,1392.3584 468.6615,1402.117 491.7151,1410.8524 515.1762,1418.4253 538.9863,1424.8168 563.0859,1430.011 588.5222,1434.1465 614.1397,1436.9483 629.6099,1437.988 645.1013,1438.541 655.131,1438.6338 656.9635,1437.8038 657.7128,1436.4555 657.6462,1434.918 656.7862,1433.6419 655.3861,1433.0032 627.7886,1432.2129 600.8608,1429.961 587.3797,1428.2661 573.9509,1426.1962 547.3217,1420.9452 526.2081,1415.6701 505.3508,1409.4583 484.7632,1402.3117 464.5431,1394.2643 443.3469,1384.6728 422.6587,1374.0957 402.4977,1362.5452 382.8848,1350.0309 363.891,1336.5955 345.5827,1322.2886 327.9767,1307.126 311.0915,1291.1208 295.0293,1274.373 279.8012,1256.9032 265.4202,1238.7298 251.9187,1219.8937 239.3273,1200.4374 227.6743,1180.405 216.9862,1159.8417 207.287,1138.7938 199.2059,1118.9112 192.0074,1098.6923 185.6971,1078.1473" />
  </g>
  <g fill="none" id="layer2" ns4:groupmode="layer" ns4:label="2" stroke="#ff00ff" stroke-width="1.1339" style="display:inline">
    <polygon points="163.8425,945.8646 958.6772,945.8646 958.6772,151.0299 163.8425,151.0299" />
    <polygon points="166.1102,946.9611 653.253,946.9611 653.253,1434.1039 166.1102,1434.1039" />
    <polygon points="166.1102,943.5969 166.1102,153.2976 956.4094,153.2976 956.4094,943.5969" />
    <polygon points="162.7087,943.5596 162.7087,1437.5055 656.6546,1437.5055 656.6546,943.5596" />
    <polygon points="161.5748,942.4257 161.5748,1438.6394 657.7885,1438.6394 657.7885,942.4257" />
    <polygon points="652.0961,942.4257 652.0961,1063.9041 773.5745,1063.9041 773.5745,942.4257" />
    <polygon points="656.6316,946.9611 769.0391,946.9611 769.0391,1059.3687 656.6316,1059.3687" />
    <polygon points="657.7654,948.095 767.9052,948.095 767.9052,1058.2348 657.7654,1058.2348" />
    <polygon points="770.173,945.8273 770.173,1060.5025 655.4977,1060.5025 655.4977,945.8273" />
    <polygon points="771.298,945.8273 957.5433,945.8273 957.5433,1132.0726 771.298,1132.0726" />
    <polygon points="771.3068,944.6934 654.3638,944.6934 654.3638,1061.6364 771.3068,1061.6364" />
    <polygon points="770.173,1061.631 770.173,1087.8376 743.9663,1087.8376 743.9663,1061.631" />
    <polygon points="772.4407,1062.7703 772.4407,943.5596 653.23,943.5596 653.23,1062.7703" />
    <polygon points="773.5745,1085.5679 723.6682,1085.5679 723.6682,1135.4741 773.5745,1135.4741" />
    <polygon points="772.4407,1086.7017 724.8021,1086.7017 724.8021,1134.3403 772.4407,1134.3403" />
    <polygon points="771.3068,1088.9715 771.3068,1060.4971 742.8324,1060.4971 742.8324,1088.9715" />
    <polygon points="769.0391,1090.1033 769.0391,1130.9387 728.2037,1130.9387 728.2037,1090.1033" />
    <polygon points="773.5745,1091.2392 773.5745,1058.2294 740.5647,1058.2294 740.5647,1091.2392" />
    <polygon points="745.1001,1086.7038 745.1001,1062.7648 769.0391,1062.7648 769.0391,1086.7038" />
    <polygon points="741.6986,1090.1054 772.4407,1090.1054 772.4407,1059.3632 741.6986,1059.3632" />
    <polygon points="745.1014,1079.6626 745.1014,1059.3632 724.8021,1059.3632 724.8021,1079.6626" />
    <polygon points="742.8337,1077.3948 727.0698,1077.3948 727.0698,1061.631 742.8337,1061.631" />
    <polygon points="729.3375,1075.1271 729.3375,1063.8987 740.566,1063.8987 740.566,1075.1271" />
    <polygon points="723.6682,1080.7964 746.2353,1080.7964 746.2353,1058.2294 723.6682,1058.2294" />
    <polygon points="725.936,1087.8356 725.936,1133.2064 771.3068,1133.2064 771.3068,1087.8356" />
    <polygon points="727.0698,1088.9694 770.173,1088.9694 770.173,1132.0726 727.0698,1132.0726" />
    <polygon points="728.2037,1062.7648 741.6998,1062.7648 741.6998,1076.261 728.2037,1076.261" />
    <polygon points="725.9393,1061.631 725.9393,1132.0726 655.4977,1132.0726 655.4977,1061.631" />
    <polygon points="725.936,1060.4971 725.936,1078.5287 743.9676,1078.5287 743.9676,1060.4971" />
    <polygon points="727.0732,1060.4971 654.3638,1060.4971 654.3638,1133.2064 727.0732,1133.2064" />
    <polygon points="728.207,1059.3632 653.23,1059.3632 653.23,1134.3403 728.207,1134.3403" />
    <polygon points="746.234,1063.8987 767.9052,1063.8987 767.9052,1085.5699 746.234,1085.5699" />
    <polygon points="767.9052,1129.8049 729.3375,1129.8049 729.3375,1091.2371 767.9052,1091.2371" />
    <polygon points="770.1642,1133.2064 958.6772,1133.2064 958.6772,944.6934 770.1642,944.6934" />
    <polygon points="769.0303,1134.3403 959.811,1134.3403 959.811,943.5596 769.0303,943.5596" />
    <polygon points="729.3409,1135.4741 729.3409,1058.2294 652.0961,1058.2294 652.0961,1135.4741" />
    <polygon points="724.8055,1130.9387 656.6316,1130.9387 656.6316,1062.7648 724.8055,1062.7648" />
    <polygon points="657.7654,1129.8049 657.7654,1063.8987 723.6716,1063.8987 723.6716,1129.8049" />
    <polygon points="657.7654,1135.4599 955.2756,1135.4599 955.2756,1432.9701 657.7654,1432.9701" />
    <polygon points="955.2756,1129.8049 773.5657,1129.8049 773.5657,948.095 955.2756,948.095" />
    <polygon points="960.9449,1129.7906 652.0961,1129.7906 652.0961,1438.6394 960.9449,1438.6394" />
    <polygon points="956.4094,946.9611 956.4094,1130.9387 772.4319,1130.9387 772.4319,946.9611" />
    <polygon points="960.9449,942.4257 767.8964,942.4257 767.8964,1135.4741 960.9449,1135.4741" />
    <polygon points="956.4094,1434.1039 656.6316,1434.1039 656.6316,1134.3261 956.4094,1134.3261" />
    <polygon points="957.5433,1435.2378 655.4977,1435.2378 655.4977,1133.1922 957.5433,1133.1922" />
    <polygon points="654.3869,1435.2378 164.9764,1435.2378 164.9764,945.8273 654.3869,945.8273" />
    <polygon points="654.3638,1436.3717 958.6772,1436.3717 958.6772,1132.0583 654.3638,1132.0583" />
    <polygon points="653.23,1437.5055 959.811,1437.5055 959.811,1130.9245 653.23,1130.9245" />
    <polygon points="167.2441,1432.9701 167.2441,948.095 652.1192,948.095 652.1192,1432.9701" />
    <polygon points="163.8425,1436.3717 655.5207,1436.3717 655.5207,944.6934 163.8425,944.6934" />
    <polygon points="167.2441,154.4315 955.2756,154.4315 955.2756,942.463 167.2441,942.463" />
    <polygon points="164.9764,152.1638 957.5433,152.1638 957.5433,944.7307 164.9764,944.7307" />
    <polygon points="161.5748,148.7622 161.5748,948.1323 960.9449,948.1323 960.9449,148.7622" />
    <polygon points="959.811,149.8961 162.7087,149.8961 162.7087,946.9984 959.811,946.9984" />
  </g>
</g></svg>