<?xml version="1.0" encoding="utf-8" ?>
<svg xmlns="http://www.w3.org/2000/svg" xmlns:cc="http://creativecommons.org/ns" xmlns:dc="http://purl.org/dc/elements/1.1/" xmlns:ev="http://www.w3.org/2001/xml-events" xmlns:inkscape="http://www.inkscape.org/namespaces/inkscape" xmlns:rdf="http://www.w3.org/1999/02/22-rdf-syntax-ns" xmlns:sodipodi="http://sodipodi.sourceforge.net/DTD/sodipodi-0.dtd" xmlns:xlink="http://www.w3.org/1999/xlink" baseProfile="tiny" height="42.0cm" version="1.2" viewBox="0 0 1122.5196850393702 1587.4015748031497" width="29.7cm">
  <metadata>
    <rdf:RDF>
      <cc:Work>
        <dc:format>image/svg+xml</dc:format>
        <dc:source>Vsketch with params {'__seed__': 0, 'stroke_thickness': 2, 'canvasWidth': 297, 'canvasHeight': 420, 'count': 8, 'width': 220}</dc:source>
        <dc:date>2025-10-12T20:26:45.244007</dc:date>
      </cc:Work>
    </rdf:RDF>
  </metadata>
  <defs/>
  <g fill="none" id="layer1" inkscape:groupmode="layer" inkscape:label="1" stroke="#00ffff" stroke-width="1.1339" style="display:inline">
    <polygon points="936.1588,121.4569 915.7669,122.7103 895.4119,124.464 875.1062,126.717 854.8618,129.4678 834.6911,132.7149 814.6063,136.4562 794.6193,140.6894 774.7423,145.4122 754.9872,150.6215 735.366,156.3143 715.8904,162.4871 696.5723,169.1362 677.4233,176.2576 658.4549,183.847 639.6785,191.8999 621.1055,200.4113 602.7471,209.3761 584.6143,218.789 566.7181,228.6442 549.0693,238.9359 531.6784,249.6577 514.5561,260.8033 497.7125,272.366 481.1579,284.3387 464.9023,296.7142 448.9554,309.4851 433.3268,322.6437 418.0261,336.1821 403.0623,350.092 388.4473,364.3624 374.1791,378.9956 360.2747,393.9747 346.7423,409.2909 333.5902,424.9348 320.8263,440.897 308.4583,457.1679 296.4937,473.7376 284.9396,490.5962 273.8031,507.7335 263.0928,525.136 252.8113,542.7994 242.9666,560.7101 233.5649,578.8572 224.6117,597.2297 216.1124,615.8165 208.0722,634.6065 200.4864,653.6131 193.3704,672.8004 186.7284,692.1569 180.5644,711.671 174.8822,731.3307 169.6852,751.1242 164.9757,771.0432 160.7583,791.0683 157.0168,811.2955 153.7758,831.6127 151.0386,852.0 148.8059,872.4526 147.0485,893.388 145.82,914.3648 145.085,937.2453 145.1123,952.9187 145.7139,953.0462 146.0775,952.5541 146.3666,930.6468 147.2297,908.796 148.6688,886.9604 150.6816,865.1778 152.9678,845.7401 155.7112,826.3617 158.909,807.0607 162.5617,787.8329 166.7986,768.1145 171.5127,748.5049 176.6994,729.0226 182.3594,709.6647 188.4875,690.4499 195.0802,671.3895 202.1336,652.4947 209.6435,633.7767 217.6668,615.1083 226.1474,596.6349 235.0739,578.3813 244.4477,560.3447 254.2598,542.5428 264.5006,524.9927 275.1715,507.6919 286.2625,490.6572 297.7668,473.899 309.673,457.4333 321.983,441.2576 334.685,425.388 347.7713,409.8337 361.2343,394.6043 375.0657,379.7087 389.252,365.1612 403.7898,350.965 418.6647,337.1336 433.8733,323.6699 449.4123,310.5772 465.2608,297.873 481.4212,285.5554 497.878,273.6368 514.6212,262.124 531.6346,251.0282 548.9206,240.3476 566.4626,230.093 584.2501,220.2703 602.2724,210.8855 620.5189,201.9442 638.9716,193.4548 657.6333,185.4161 676.3099,177.9044 695.1701,170.8448 714.1887,164.2467 733.3688,158.1091 752.6847,152.4401 772.1322,147.2407 791.7074,142.5122 811.384,138.2611 830.4737,134.6101 849.6361,131.4077 868.8756,128.6533 888.1743,126.3496 910.3298,124.267 932.533,122.7785 954.7606,121.8853 977.0454,121.5862 977.5744,120.9979 977.0041,120.4535 956.5753,120.7045"/>
    <polygon points="854.5942,128.3613 834.3778,131.6185 814.2475,135.3715 794.2155,139.618 774.294,144.3556 754.4949,149.5813 734.8338,155.2909 715.3153,161.483 695.9584,168.1517 676.7713,175.2939 657.7619,182.9069 638.9454,190.9847 620.3364,199.5209 601.9395,208.5134 583.7724,217.9535 565.8395,227.839 548.1581,238.1603 530.7325,248.9149 513.5765,260.0945 496.7003,271.6923 480.1173,283.6991 463.8314,296.112 447.8554,308.9214 432.199,322.1196 416.8745,335.696 401.8882,349.6448 387.2465,363.9602 372.9453,378.6477 359.0124,393.6797 345.4534,409.0499 332.2742,424.7519 319.4853,440.7734 307.0966,457.1016 295.1134,473.7297 283.5406,490.6505 272.3877,507.851 261.6633,525.3174 251.3717,543.0423 241.5174,561.0184 232.1101,579.228 223.1519,597.667 214.6516,616.3173 206.6126,635.1711 199.0114,654.2911 191.8833,673.5966 185.2341,693.0722 179.068,712.7061 173.3887,732.4864 168.1997,752.4008 163.5041,772.4373 159.3047,792.5837 155.5496,813.1488 152.3123,833.7978 149.5934,854.5253 147.3958,875.3107 145.6291,897.5051 144.4559,919.7426 143.8188,948.9187 143.8199,952.6898 144.3092,953.7192 145.1449,954.1773 146.0923,954.1152 146.8588,953.5549 147.2059,952.6673 147.5805,927.8112 148.6785,903.2144 150.5139,878.5708 153.0788,854.0227 155.4109,836.1606 158.1303,818.3534 161.2356,800.6093 164.7253,782.9369 168.9807,763.6985 173.6916,744.5666 178.8472,725.581 184.4604,706.6941 190.5108,687.9744 197.0136,669.3751 203.9561,650.9354 211.3345,632.6657 219.3291,614.163 227.7707,595.86 236.6544,577.7674 245.9749,559.8959 255.7416,542.2298 265.9196,524.8324 276.5172,507.6873 287.5281,490.8047 298.9457,474.1945 310.7635,457.8666 322.9743,441.8304 335.571,426.0956 348.5462,410.6714 361.8922,395.5669 375.6011,380.791 389.6649,366.3524 404.0534,352.2805 418.8012,338.5414 433.8784,325.1645 449.2527,312.177 464.9613,299.5475 480.9478,287.3214 497.2261,275.4865 513.7866,264.0499 530.6196,253.0183 547.7152,242.3982 565.0633,232.1958 582.6803,222.4028 600.5031,213.0543 618.5474,204.1408 636.8025,195.6675 655.2856,187.6277 673.4248,180.2488 691.7615,173.2895 710.2289,166.7754 728.8737,160.6898 747.6282,155.0548 766.5395,149.8564 785.5685,145.1064 804.6748,140.8137 825.9536,136.5859 847.3654,132.9111 868.8661,129.7981 890.4109,127.2522 911.9849,125.2728 933.6332,123.8557 955.1604,123.0089 977.2186,122.7081 978.3172,122.106 978.7051,120.9111 978.1698,119.7785 977.0041,119.3197 956.5323,119.5713 936.0691,120.326 915.6305,121.5834 895.2329,123.3423 874.8846,125.6019"/>
    <polygon points="657.0648,181.9686 638.2115,190.07 619.5632,198.6326 601.1277,207.6529 582.923,217.1222 564.9567,227.0363 547.2397,237.3893 529.7826,248.1748 512.5929,259.3885 495.6873,271.0195 479.0698,283.0649 462.7567,295.5132 446.7546,308.3588 431.0704,321.5966 415.7193,335.2136 400.7051,349.2067 386.0422,363.5621 371.7108,378.3013 357.7468,393.3892 344.1588,408.8165 330.955,424.5739 318.1435,440.6518 305.732,457.0405 293.7281,473.7301 282.139,490.7103 270.9718,507.971 260.2332,525.5015 249.9299,543.2913 240.068,561.3295 230.6535,579.6052 221.6921,598.1074 213.1894,616.8247 205.1503,635.7459 197.5312,654.9869 190.3917,674.4109 183.7361,694.0061 177.5686,713.7603 171.8929,733.6614 166.7125,753.6971 162.0315,773.8515 157.8509,794.1194 154.0842,815.0235 150.8508,836.0166 148.1524,857.089 145.9918,878.2195 144.2209,901.7865 143.1181,925.3942 142.6774,952.5543 142.9002,953.6187 143.5101,954.5236 144.8721,955.2781 146.4236,955.2005 147.7012,954.317 148.3219,952.889 148.6447,930.2848 149.5106,908.6069 150.9628,886.7187 152.9907,864.9067 155.6024,843.0961 158.7961,821.3327 162.5607,799.6914 166.8976,778.1574 171.1604,759.4115 175.8569,740.7695 180.9929,722.2125 186.5497,703.8087 192.5319,685.5387 198.9467,667.384 205.7705,649.4114 213.0095,631.6019 220.98,613.2502 229.3783,595.1235 238.2112,577.2044 247.4877,559.477 257.1895,541.9788 267.2954,524.7456 277.83,507.7357 288.7554,491.0101 300.0981,474.5281 311.8176,458.3489 323.9236,442.457 336.4284,426.8382 349.3066,411.5259 362.5305,396.5513 376.1323,381.878 390.0632,367.5587 404.3351,353.5794 418.9177,339.9685 433.8236,326.7126 449.0443,313.8193 464.5946,301.2774 480.4186,289.1321 496.555,277.3538 512.9456,265.9847 529.6051,255.0135 546.5238,244.4465 563.6921,234.2897 581.1263,224.5347 598.7637,215.2167 616.6204,206.3258 634.6859,197.8674 652.9774,189.8344 670.6172,182.5785 688.4194,175.7306 706.3744,169.2942 724.4728,163.2727 742.705,157.6694 761.0614,152.4873 779.5321,147.7289 798.1075,143.397 820.179,138.8308 842.3962,134.8617 864.6834,131.5032 887.0837,128.7487 909.4906,126.6103 931.9172,125.0828 954.136,124.1708 977.4028,123.8275 978.4045,123.4872 979.2116,122.8034 979.7118,121.8713 979.8355,120.8206 979.5653,119.7979 978.9389,118.9453 978.0436,118.3818 977.0041,118.1858 956.4817,118.4384 935.9755,119.1954 915.4941,120.4566 895.0499,122.221 874.6515,124.4882 854.3189,127.2559 834.0604,130.5228 813.8847,134.2876 793.8114,138.5468 773.8489,143.2983 754.0093,148.5393 734.301,154.2678 714.7395,160.4793 695.3403,167.1688 676.1115,174.3333"/>
    <polygon points="773.906,953.2365 780.8012,953.0378 781.2803,952.4324 780.7113,951.9105 768.7278,952.5014 756.8642,954.2668 745.2279,957.1908 733.9354,961.2446 723.0995,966.3872 712.8184,972.5719 703.1951,979.7375 694.3229,987.8145 686.2709,996.7452 679.136,1006.4289 672.992,1016.7654 667.895,1027.6605 663.8663,1039.1068 660.995,1050.9007 659.2724,1063.3605 658.8652,1070.6462 658.9917,1074.2035 659.5722,1074.3386 659.9522,1073.8837 660.6712,1060.6983 662.8067,1047.7279 665.6604,1037.1321 669.4671,1026.8322 674.4749,1016.397 680.4589,1006.4893 687.3639,997.1999 695.1265,988.6144 703.6523,980.8306 712.8887,973.8924 722.7391,967.872 733.1195,962.8199 743.2761,958.9947 753.7352,956.097 760.4114,954.7635 767.1522,953.8085"/>
    <polygon points="761.4555,1072.3919 757.5029,1071.4329 753.4554,1070.9914 751.3672,1071.0502 749.9772,1071.8866 749.3654,1072.9554 749.2641,1074.1791 749.6918,1075.334 750.5657,1076.1965 751.6589,1076.5999 757.6137,1077.2321 762.4492,1078.8082 767.3027,1081.6032 771.4208,1085.3591 774.1443,1089.0633 776.1576,1093.1666 777.4655,1097.8285 777.9545,1103.0816 778.8064,1104.5338 780.2607,1105.2361 781.8625,1105.0301 783.0919,1103.9828 783.5498,1102.4341 782.87,1095.9317 780.8616,1089.71 777.6113,1084.0374 773.2562,1079.1558 767.7238,1075.1278"/>
    <polygon points="758.7205,1072.832 755.2259,1072.2591 751.9295,1072.1009 750.8359,1072.6281 750.396,1074.0809 751.2917,1075.3065 757.1608,1075.9812 761.8807,1077.3451 766.4913,1079.6794 770.5714,1082.8511 774.1842,1087.0454 776.8745,1091.9157 778.4449,1096.9282 779.2595,1103.3178 780.0889,1104.0194 781.1736,1104.0759 782.0714,1103.4644 782.4159,1102.4342 781.7893,1096.3032 779.9351,1090.4216 776.9301,1085.0364 772.9013,1080.3727 767.8562,1076.523 762.1207,1073.8068"/>
    <polygon points="757.9195,1074.9781 763.5574,1076.819 767.8905,1079.2426 771.729,1082.3915 774.9226,1086.1251 777.4166,1090.3582 779.4621,1096.2691 780.1755,1102.6119 780.805,1102.9979 781.2821,1102.4343 780.7058,1096.6645 779.0026,1091.1259 776.2375,1086.0292 772.5228,1081.5819 767.9516,1077.9218 762.7422,1075.2471 756.8798,1073.627 753.3518,1073.2567 751.6678,1073.3987 751.5245,1073.9405 751.9168,1074.3407"/>
    <polygon points="748.4363,1073.5945 744.9478,1074.6758 741.7441,1076.4295 738.9532,1078.7853 736.6553,1081.6985 734.9919,1085.0196 733.9997,1088.8359 733.9774,1091.9054 734.5055,1092.0489 734.9089,1091.679 735.3455,1087.7854 736.5643,1084.2128 737.9739,1081.7609 739.7675,1079.5743 742.4093,1077.3482 745.4439,1075.6972 748.6692,1074.7042 752.3344,1074.2992 752.624,1073.6579 752.0702,1073.2287"/>
    <polygon points="742.5884,1080.0493 744.6062,1078.6418 746.8048,1077.5953 749.494,1076.8558 752.7946,1076.5371 754.2223,1075.6449 754.881,1074.1902 754.6489,1072.6103 753.5996,1071.4065 752.0699,1070.961 747.6933,1071.4336 743.5179,1072.8282 739.7321,1075.0832 736.5174,1078.0905 733.8712,1081.9887 732.183,1086.3873 731.54,1091.6297 731.8239,1092.7407 732.5218,1093.6459 733.5349,1094.2064 734.6876,1094.315 735.7876,1093.9537 736.6491,1093.1857 737.1578,1092.0198 737.615,1088.0355 738.5265,1085.373 740.2539,1082.4794"/>
    <polygon points="733.5668,1085.67 732.6932,1090.5662 732.7194,1091.9015 733.2261,1092.7552 734.6308,1093.1789 735.8406,1092.3551 736.3675,1088.4391 737.1062,1085.8397 738.4406,1083.1206 740.245,1080.7218 742.7744,1078.4762 745.7192,1076.8124 748.5738,1075.8839 753.0763,1075.1697 753.6923,1074.3189 753.6898,1073.2648 753.0699,1072.4169 752.07,1072.0948 748.0646,1072.5136 744.2357,1073.7485 740.7438,1075.7465 737.7389,1078.4217 735.2587,1081.8166"/>
    <polygon points="780.1661,1102.2946 779.9067,1107.1315 779.1925,1111.741 777.9993,1116.2966 776.3444,1120.7055 774.4851,1124.4905 772.2853,1128.0884 769.759,1131.4743 766.9366,1134.6076 763.855,1137.4534 760.5258,1140.0053 756.9835,1142.2379 753.2452,1144.1407 748.7047,1145.9107 744.0018,1147.1881 739.2343,1147.9535 734.2194,1148.2333 733.8102,1148.8581 734.3754,1149.3464 739.0084,1149.1167 743.596,1148.4305 748.0935,1147.2946 752.4568,1145.7201 756.6432,1143.7223 760.6119,1141.3208 764.324,1138.5392 767.7432,1135.4045 770.8554,1131.9236 773.6061,1128.1506 775.9663,1124.1263 777.9165,1119.8838 779.4661,1115.3619 780.5467,1110.7095 781.1818,1105.502 781.1147,1102.0337 780.563,1101.8898"/>
    <polygon points="781.1663,1100.7961 780.3262,1100.7802 779.5811,1101.1684 779.1114,1101.8695 778.7253,1107.5074 777.9237,1112.2436 776.5515,1117.0589 774.6487,1121.6903 771.0374,1127.9034 766.4963,1133.4356 763.1804,1136.5391 759.5903,1139.2733 755.7426,1141.631 751.6766,1143.5882 747.545,1145.0908 743.2857,1146.1796 733.574,1147.2773 732.8181,1148.087 732.7221,1149.1941 733.3273,1150.1219 734.3755,1150.4802 739.1906,1150.2379 743.9611,1149.5135 748.6348,1148.3142 753.1611,1146.6537 757.4981,1144.5479 761.6055,1142.0158 765.4352,1139.0871 768.9521,1135.7892 772.1765,1132.0847 775.0058,1128.0703 777.4122,1123.7845 779.3668,1119.279 780.9383,1114.2597 781.9517,1109.0988 782.4159,1102.4247 781.8963,1101.2122"/>
    <polygon points="762.7941,1135.3781 759.2301,1138.1441 755.4238,1140.5125 751.3939,1142.4767 747.4272,1143.9398 743.3095,1145.0169 738.7958,1145.7193 734.0102,1145.9679 732.8936,1146.3606 731.7316,1147.7473 731.6439,1149.5508 732.6631,1151.0413 734.3755,1151.6141 739.3761,1151.3588 744.3248,1150.5963 749.1742,1149.3334 753.8662,1147.5851 758.3596,1145.3669 762.6007,1142.7052 766.5491,1139.626 770.1639,1136.1613 773.5002,1132.2259 776.4059,1127.9626 778.8489,1123.4183 780.8011,1118.6469 782.3789,1113.1031 783.2973,1107.4127 783.5382,1102.1798 782.6601,1100.3738 781.5408,1099.7242 780.2457,1099.6404 779.0491,1100.1426 778.2016,1101.1254 777.096,1110.6607 774.9013,1118.259 773.1998,1122.0674 771.1415,1125.6953 768.7452,1129.1095 766.033,1132.2785"/>
    <polygon points="726.5482,1146.6595 718.9661,1145.4403 711.4128,1143.3883 704.1214,1140.5423 698.4299,1137.6576 692.9866,1134.272 687.8827,1130.4424 683.1313,1126.1834 678.807,1121.572 674.9134,1116.6291 671.443,1111.345 668.4539,1105.8081 665.2473,1098.1215 662.9401,1090.1494 661.5691,1082.1438 661.0036,1073.2542 660.2677,1072.338 659.1133,1072.1177 658.0916,1072.6986 657.6905,1073.7994 658.0709,1081.4245 659.2069,1088.9701 661.0883,1096.3692 663.6946,1103.541 667.0007,1110.4182 670.9761,1116.9361 675.5775,1123.0233 680.7638,1128.6258 686.5479,1133.738 692.8199,1138.2448 699.51,1142.0961 706.557,1145.2567 714.2105,1147.7815 722.0904,1149.4898 731.6584,1150.4321 734.5746,1150.4685 735.591,1149.9687 736.0189,1149.216 736.0218,1148.3539 735.5989,1147.5984 734.8626,1147.15"/>
    <polygon points="711.1786,1144.5049 705.1433,1142.2308 698.819,1139.1687 692.8117,1135.5237 687.175,1131.3284 681.9537,1126.6149 677.2201,1121.4525 672.997,1115.8741 669.3128,1109.9172 666.208,1103.6471 663.4902,1096.4497 661.5317,1089.0174 660.354,1081.4601 659.9413,1073.658 659.3201,1073.2332 658.8244,1073.7994 659.192,1081.2397 660.2906,1088.6076 662.1094,1095.8316 664.6308,1102.8413 667.8303,1109.5686 671.6767,1115.9481 676.1328,1121.9178 681.155,1127.4196 686.7153,1132.417 692.7455,1136.8424 699.1838,1140.6498 705.9669,1143.802 713.1345,1146.2991 720.5127,1148.0637 728.4862,1149.1165 734.7773,1149.179 734.9148,1148.6057 734.4686,1148.2203 725.8381,1147.7212 717.3882,1146.2478"/>
    <polygon points="662.689,1081.9569 662.216,1073.5581 661.8908,1072.4585 660.5384,1071.2035 658.7002,1071.0465 657.1547,1072.0541 656.5567,1073.7995 656.9494,1081.6036 658.1235,1089.3329 660.0673,1096.9053 662.761,1104.2445 666.1776,1111.2764 670.2824,1117.9299 675.0316,1124.1351 680.382,1129.8354 686.3946,1135.0621 692.9101,1139.6467 699.8566,1143.5393 707.1683,1146.7031 715.3312,1149.2479 723.7202,1150.8812 734.4052,1151.6139 735.4981,1151.3822 736.4165,1150.7462 737.088,1149.6015 737.1648,1148.2766 736.6302,1147.0619 735.6012,1146.2237 734.5938,1145.9532 726.7272,1145.5383 720.6582,1144.6289 714.0455,1143.0214 707.6407,1140.8089 701.2907,1137.9121 695.2502,1134.4153 689.5759,1130.3512 684.3208,1125.7578 679.3268,1120.4345 674.8797,1114.6098 671.0464,1108.364 667.8777,1101.7885 665.441,1095.0932 663.6823,1088.2188"/>
    <polygon points="657.411,1075.8295 658.66,1076.54 660.0969,1076.5467 661.3525,1075.848 662.1041,1074.6233 662.908,1061.1058 664.8855,1048.8378 668.22,1036.592 672.8452,1024.773 677.512,1015.5879 682.9423,1006.8673 689.1076,998.6499 695.9614,990.9973 703.3629,984.0443 711.3326,977.7505 719.8119,972.1623 728.7651,967.3077 734.9241,964.5179 741.2322,962.0839 747.6405,960.0219 754.1843,958.3206 767.1575,956.0903 781.6269,955.1615 783.1477,953.9327 783.5112,952.0117 782.5445,950.3122 780.7113,949.6428 768.3625,950.2589 756.1399,952.0993 744.1572,955.147 732.537,959.3714 721.3947,964.7306 710.8438,971.1693 700.9824,978.6277 691.9117,987.0299 683.63,996.4074 676.3341,1006.5709 670.0981,1017.4169 664.9838,1028.8391 660.8962,1041.2628 658.1382,1054.0475 657.1352,1061.8296 656.6257,1069.6596 656.5793,1074.1588"/>
    <polygon points="657.9135,1066.3975 657.6914,1073.8579 658.1967,1075.0119 658.962,1075.447 659.8424,1075.4412 660.6019,1074.9959 661.0361,1074.2342 661.7305,1061.4587 663.6162,1049.3572 666.7747,1037.3699 671.1567,1025.7739 675.9869,1015.9941 681.7045,1006.6703 688.2498,997.9077 695.5472,989.8007 703.5071,982.4306 712.102,975.812 721.2352,970.0139 730.8821,965.0523 742.8845,960.3178 755.2979,956.9098 767.8574,954.8713 781.1844,954.1122 782.1428,953.4019 782.3988,952.2368 781.8266,951.1901 780.7113,950.7767 768.5477,951.3799 756.5033,953.1827 744.6925,956.1687 733.2385,960.3067 722.2497,965.5569 711.8339,971.8678 702.0931,979.1777 693.12,987.4175 684.9506,996.573 677.7359,1006.4936 671.5449,1017.0833 666.438,1028.2405 662.3773,1040.1678 659.5572,1052.4517 658.5362,1059.4011"/>
    <polygon points="897.7296,989.0592 889.6705,983.4561 881.3436,978.2592 872.7694,973.4814 863.9689,969.1344 854.9639,965.2288 845.6215,961.7205 836.1106,958.6863 826.4625,956.1362 816.6944,954.0747 806.1545,952.4189 795.5407,951.3332 781.3616,950.7778 780.2621,950.8356 779.498,951.2802 779.0519,952.0812 779.0854,952.9937 779.5859,953.7574 780.4093,954.1522 792.1793,954.5168 803.4937,955.5171 814.819,957.1916 826.0263,959.5291 841.9623,964.0708 857.4267,969.94 865.7406,973.7402 873.8668,977.9267 881.7875,982.4901 889.4851,987.4205 896.9427,992.707 904.1438,998.3378 911.0726,1004.3006 917.7137,1010.5821 924.0321,1017.1466 930.0172,1023.9766 935.6953,1031.1023 941.0335,1038.4859 946.0045,1046.0858 950.6302,1053.9356 954.8833,1061.9933 958.7426,1070.2137 962.5897,1079.5849 965.944,1089.1435 968.7964,1098.8637 971.1391,1108.7191 972.9564,1118.6239 974.259,1128.6095 975.029,1138.3797 975.3593,1149.1977 976.052,1150.1862 977.2224,1150.4666 978.2854,1149.9023 978.7087,1148.7756 978.4674,1139.0088 977.7444,1129.262 976.5412,1119.5627 974.8617,1109.9384 972.7085,1100.4049 970.0886,1090.993 967.0064,1081.7181 963.4717,1072.6102 959.492,1063.6876 955.0753,1054.9689 950.2357,1046.4821 944.9812,1038.2411 939.3287,1030.2725 933.2876,1022.5895 926.8748,1015.2139 920.1085,1008.1665 912.9688,1001.4308 905.5041,995.0573"/>
    <polygon points="912.679,1002.6957 905.3242,996.3733 897.6701,990.4231 889.7323,984.8569 881.5301,979.6882 873.0834,974.9296 864.4127,970.5926 855.5389,966.6878 846.4337,963.2068 837.1637,960.1797 827.7552,957.6153 818.2349,955.5207 808.405,953.8689 798.5003,952.7164 787.6106,952.0317 780.3037,952.0779 780.1698,952.6619 780.6347,953.0399 790.9593,953.3131 801.1695,954.1171 811.3386,955.4563 821.431,957.328 830.3477,959.444 839.1556,961.9752 847.8353,964.9158 856.3679,968.2595 865.0069,972.1285 873.4487,976.4107 881.6735,981.096 889.6685,986.1776 897.4023,991.6357 904.8689,997.466 912.0447,1003.6508 918.9075,1010.1702 925.442,1017.0082 931.6337,1024.148 937.4782,1031.5845 942.9523,1039.2883 948.0521,1047.2539 952.7576,1055.4498 957.062,1063.8634 960.9582,1072.4818 964.311,1080.946 967.2644,1089.5498 969.8148,1098.2815 971.9567,1107.1223 973.9151,1117.436 975.3185,1127.8474 976.1596,1138.289 976.4459,1148.8544 977.0492,1149.3449 977.5748,1148.7757 977.3366,1139.0988 976.6231,1129.4454 975.436,1119.8388 973.7773,1110.2983 971.6515,1100.851 969.0649,1091.5233 966.0228,1082.334 962.5328,1073.3053 958.6032,1064.4591 954.2435,1055.8167 949.4643,1047.3991 944.275,1039.2234 938.6922,1031.3158 932.7274,1023.6922 926.3952,1016.371 919.7107,1009.3699"/>
    <polygon points="943.9471,1044.9434 948.4803,1052.4396 952.6558,1060.1068 956.4936,1067.9817 960.6029,1077.5989 964.177,1087.3958 967.226,1097.3998 969.7299,1107.5539 971.6575,1117.6815 973.0462,1127.9269 973.8572,1137.7262 974.2843,1149.5652 975.4693,1151.1602 977.4066,1151.5859 979.1511,1150.6347 979.8425,1148.7756 979.598,1138.9146 978.8655,1129.0778 977.6468,1119.2893 975.9456,1109.5769 973.7658,1099.9606 971.1115,1090.4604 967.99,1081.1033 964.409,1071.9122 960.3772,1062.9097 955.9064,1054.1213 951.0041,1045.5616 945.6839,1037.2553 939.959,1029.2226 933.8433,1021.4832 927.3518,1014.0561 920.5033,1006.9624 913.2548,1000.1652 905.6762,993.7381 897.7865,987.6971 889.6053,982.0572 881.1528,976.8324 872.4503,972.0357 863.5194,967.6791 854.3822,963.7735 844.7966,960.2383 835.0424,957.1993 825.1451,954.6647 815.1346,952.6416 803.8382,950.991 792.462,949.9902 780.6041,949.6447 779.5656,949.8823 778.6882,950.4864 777.9643,951.7572 777.9711,953.2233 778.7068,954.4872 779.9783,955.2172 791.2497,955.5996 800.6954,956.3476 810.5348,957.6255 820.2958,959.4062 830.068,961.7153 839.7071,964.5284 849.1874,967.8378 858.4831,971.6346 866.476,975.3635 874.2644,979.4384 881.8852,983.8784 889.2957,988.6611 896.4804,993.7767 903.4016,999.1954 910.0916,1004.9429 916.5127,1010.9893 922.6111,1017.2784 928.3992,1023.8143 933.9048,1030.6283 939.0792,1037.6602"/>
    <polygon points="938.7445,1298.7054 931.1229,1312.112 922.8585,1325.1321 913.9707,1337.7349 904.4806,1349.8907 894.4106,1361.5706 883.7792,1372.7523 872.6332,1383.3884 860.9837,1393.4704 848.8582,1402.9746 836.279,1411.8828 823.2817,1420.1691 809.9036,1427.8102 796.1702,1434.7925 782.1138,1441.0994 768.1079,1446.592 753.85,1451.4162 739.3865,1455.5564 724.7355,1459.0073 711.2404,1461.5458 697.6405,1463.4985 678.5415,1465.2353 659.3388,1465.8166 658.8252,1466.4112 659.3951,1466.948 675.0223,1466.5639 690.6155,1465.4123 706.1333,1463.496 721.5382,1460.8198 736.7931,1457.39 751.8611,1453.215 766.7057,1448.3048 781.2913,1442.6712 795.5824,1436.3279 809.5447,1429.2903 823.1412,1421.5771 836.3456,1413.2034 849.1226,1404.1912 861.4386,1394.5645 873.2697,1384.342 884.5844,1373.5507 895.3654,1362.2053 905.5731,1350.3464 915.1877,1337.997 924.1834,1325.1898 932.5385,1311.9557 940.2309,1298.3301 947.2458,1284.3394 953.5627,1270.0242 959.1874,1255.3622 964.0817,1240.4406 968.2348,1225.292 971.6345,1209.9606 974.3045,1194.2665 976.1866,1178.4548 977.3132,1161.6646 977.4074,1148.3623 976.8128,1148.2322 976.443,1148.7157 975.9046,1167.1992 974.2959,1185.5827 972.3666,1199.4297 969.8287,1213.1782 966.4047,1227.9052 962.2848,1242.445 957.4766,1256.772 951.9912,1270.8536 945.7051,1284.9441"/>
    <polygon points="928.346,1312.322 920.3766,1324.7598 911.8503,1336.7861 902.7513,1348.4231 893.1164,1359.6205 882.9668,1370.3535 872.3689,1380.558 861.3288,1390.2369 849.8255,1399.4086 837.931,1408.0158 825.6226,1416.0749 812.9772,1423.5354 799.9977,1430.3982 786.6849,1436.6604 771.4996,1442.9063 756.0093,1448.352 740.2561,1452.9825 724.3121,1456.779 708.2515,1459.7313 692.0891,1461.8436 676.258,1463.0943 658.6893,1463.6348 657.046,1464.7891 656.5793,1466.7386 657.519,1468.5094 659.3951,1469.2157 675.206,1468.8253 690.9822,1467.6548 706.6814,1465.7072 722.2616,1462.9879 737.6924,1459.5022 752.9287,1455.2604 767.9371,1450.2721 782.6847,1444.5478 797.1318,1438.1027 811.2398,1430.9542 824.978,1423.1184 838.3128,1414.6143 851.2118,1405.4626 863.6465,1395.6832 875.5834,1385.302 886.9907,1374.3471 897.8946,1362.7859 908.2119,1350.6984 917.915,1338.1173 926.9847,1325.0676 935.3962,1311.5842 943.129,1297.7005 950.1623,1283.4538 956.4823,1268.8726 962.1616,1253.7366 967.0704,1238.3334 971.196,1222.7022 974.5282,1206.8829 977.2071,1189.7776 978.9584,1172.5525 979.6108,1160.9487 979.842,1149.3327 979.7038,1147.8886 979.0043,1146.7522 977.6733,1146.0091 976.1535,1146.0617 974.8796,1146.8922 974.2175,1148.2653 973.6191,1167.4338 971.9884,1185.7881 969.2548,1204.1925 965.4387,1222.4033 962.0455,1235.2984 958.1093,1248.0381 953.6264,1260.6277 948.625,1272.9882 942.4917,1286.3938 935.7231,1299.5239"/>
    <polygon points="784.4147,1438.8885 771.4255,1444.1475 758.2159,1448.8253 744.8118,1452.9127 731.2396,1456.4017 713.4715,1460.017 695.5251,1462.6071 677.5499,1464.158 659.117,1464.7026 658.0512,1465.3338 657.6962,1466.5206 658.2404,1467.6334 659.3951,1468.0819 675.1159,1467.6945 690.8024,1466.5332 706.4088,1464.6014 721.9013,1461.9036 737.2421,1458.4463 752.3942,1454.238 767.3206,1449.2888 781.9853,1443.6107 796.3527,1437.2176 810.3879,1430.1248 824.0569,1422.3497 837.3297,1413.9089 850.1676,1404.827 862.5429,1395.124 874.4255,1384.8236 885.7865,1373.9507 896.629,1362.4977 906.8903,1350.5263 916.5505,1338.0599 925.5833,1325.1317 933.9668,1311.7733 941.6805,1298.0173 948.7056,1283.8971 955.0235,1269.4509 960.676,1254.5526 965.5782,1239.391 969.718,1224.0036 973.085,1208.4289 975.7617,1192.0469 977.5837,1175.5441 978.6293,1155.8847 978.7064,1148.6778 978.2078,1147.5592 977.3968,1147.1088 976.4737,1147.1498 975.7082,1147.6674 975.3258,1148.5126 974.825,1166.21 973.3915,1183.5013 970.996,1200.7768 967.6442,1217.9231 964.2267,1231.6994 960.1937,1245.3082 955.5431,1258.7504 950.3039,1271.9418 944.0875,1285.6983 937.2211,1299.1421 929.7202,1312.2425 921.6022,1324.9697 912.8854,1337.2945 903.6088,1349.1656 893.7567,1360.6032 883.3695,1371.5572 872.493,1381.9821 861.1551,1391.8574 849.336,1401.2002 837.1099,1409.952 824.4556,1418.1278 811.4522,1425.6766 798.1043,1432.5981"/>
    <polygon points="627.8778,1467.1165 642.4113,1467.8014 659.4343,1468.0818 660.6207,1467.5811 661.072,1466.7664 661.0254,1465.8326 660.4922,1465.0646 659.6374,1464.6949 632.3169,1463.963 605.3729,1461.8213 578.5199,1458.2518 551.8637,1453.2612 528.7115,1447.7231 505.8416,1441.1152 483.3035,1433.4518 461.1179,1424.7378 438.5458,1414.612 416.5154,1403.4224 395.0503,1391.1833 374.1754,1377.9065 353.9901,1363.6552 334.4923,1348.4279 315.7525,1332.2768 297.8358,1315.2611 280.7606,1297.401 264.5857,1278.7615 249.3275,1259.3645 235.0213,1239.255 221.7004,1218.4798 209.3956,1197.0871 198.1355,1175.1265 187.9463,1152.649 179.2177,1130.696 171.5106,1108.3639 164.8414,1085.7002 159.2244,1062.753 153.981,1035.4702 150.2214,1007.9133 147.9679,980.2832 147.196,952.2405 146.5798,951.1538 145.3912,950.781 144.2647,951.321 143.811,952.4813 144.4348,977.8321 146.3046,1003.1255 149.4154,1028.2925 153.7599,1053.2761 159.3274,1078.0159 166.1057,1102.4557 174.0777,1126.5326 183.2225,1150.1848 193.5208,1173.3622 204.9446,1196.0019 217.4696,1218.0557 231.0619,1239.4638 245.6925,1260.1807 261.3219,1280.1502 277.9141,1299.3271 295.4319,1317.6677 313.8613,1335.1526 333.1295,1351.7085 353.1899,1367.2953 373.9936,1381.8751 395.4902,1395.4124 417.6309,1407.8764 440.3552,1419.2328 463.6114,1429.4562 487.5001,1438.5773 511.8081,1446.5017 536.4826,1453.2124 561.4559,1458.6907 587.3232,1463.017 613.3733,1466.0221"/>
    <polygon points="175.062,1125.9183 184.1624,1149.4914 194.4109,1172.5927 205.7797,1195.1595 218.2428,1217.1408 231.7702,1238.4837 246.3293,1259.1366 261.8849,1279.0497 278.3995,1298.175 295.8332,1316.4664 314.1553,1333.8898 333.3112,1350.392 353.2548,1365.9332 373.9379,1380.4757 395.3104,1393.9845 417.3208,1406.427 439.916,1417.773 463.0413,1427.9953 486.6908,1437.0868 510.7629,1445.004 535.1919,1451.7254 559.9259,1457.2366 585.1147,1461.5544 610.4831,1464.6157 636.8605,1466.4534 652.0829,1466.8958 659.8176,1466.7807 659.9464,1466.1825 659.4567,1465.8157 645.3465,1465.6213 631.3069,1465.044 617.2658,1464.0808 603.2639,1462.7339 579.8995,1459.6183 556.6954,1455.4319 532.5808,1449.8984 508.7537,1443.2071 485.2768,1435.3753 462.2116,1426.4239 439.318,1416.2357 416.9488,1404.9424 395.1574,1392.5709 373.9957,1379.1508 353.5201,1364.7184 333.7672,1349.2996 314.7903,1332.9352 296.6345,1315.6642 279.3534,1297.5389 262.9768,1278.5924 247.5437,1258.8698 233.0909,1238.4179 219.6527,1217.2856 207.2612,1195.5229 195.9458,1173.1819 185.7334,1150.3155 176.7743,1127.3262 168.928,1103.9258 162.2154,1080.1753 156.6538,1056.1369 152.4656,1033.2016 149.3231,1010.0998 147.9044,995.7332 146.8899,981.3248 146.2818,966.9163 146.0772,952.4362 145.4893,951.911 144.9449,952.4813 145.5656,977.7424 147.426,1002.9425 150.5214,1028.021 154.8445,1052.9171 160.3848,1077.571 167.129,1101.9231"/>
    <polygon points="174.1047,1112.6804 167.4938,1091.0581 161.8457,1069.1646 158.6889,1054.7732 155.9482,1040.2969 153.626,1025.7476 151.7241,1011.1373 150.2519,996.5682 149.1977,981.9629 148.5713,967.634 148.3092,952.0191 147.9502,951.0319 147.2563,950.2432 146.3229,949.7614 145.2781,949.6525 144.2654,949.9316 143.4239,950.5603 142.8704,951.4487 142.6772,952.4813 143.3042,977.9258 145.1834,1003.3087 148.3096,1028.5644 152.6761,1053.6394 158.2712,1078.4652 165.0829,1102.9891 173.0938,1127.1478 182.2847,1150.8828 192.6331,1174.1364 204.1122,1196.8489 216.6975,1218.9719 230.3569,1240.4484 245.0573,1261.2262 260.763,1281.255 277.4358,1300.4861 295.0327,1318.8703 313.5698,1336.4166 332.9508,1353.0262 353.1283,1368.6585 374.0531,1383.2753 395.6742,1396.841 417.9421,1409.3243 440.7959,1420.691 464.1832,1430.9154 488.3049,1440.063 512.8532,1447.9953 537.7667,1454.6926 562.9872,1460.1388 589.5512,1464.4711 616.3048,1467.4143 632.316,1468.5047 648.3572,1469.0974 659.5701,1469.2115 661.4252,1468.3802 662.1735,1467.0355 662.1078,1465.4944 661.2449,1464.2159 659.8402,1463.5785 631.1158,1462.7623 617.0475,1461.7873 603.0413,1460.4277 588.9885,1458.6707 574.9897,1456.5249 561.0558,1453.9921 547.1974,1451.0741 524.964,1445.5437 503.0007,1439.0224 481.3518,1431.5232 460.0608,1423.0614 437.8417,1413.0169 416.127,1401.9241 394.9662,1389.8081 374.3824,1376.6799 354.449,1362.5835 335.2348,1347.5704 316.7586,1331.6579 299.0411,1314.8611 282.2069,1297.3038 266.2271,1278.9655 251.1379,1259.8875 236.9736,1240.1133 223.7661,1219.6875 211.5455,1198.6564 200.3263,1177.0407 190.1614,1154.9426 181.6655,1133.9891"/>
  </g>
  <g fill="none" id="layer2" inkscape:groupmode="layer" inkscape:label="2" stroke="#ff00ff" stroke-width="1.1339" style="display:inline">
    <polygon points="144.9449,953.0835 977.5748,953.0835 977.5748,120.4535 144.9449,120.4535"/>
    <polygon points="147.2126,954.1783 657.7146,954.1783 657.7146,1464.6803 147.2126,1464.6803"/>
    <polygon points="147.2126,950.8157 147.2126,122.7213 975.3071,122.7213 975.3071,950.8157"/>
    <polygon points="143.811,950.7767 143.811,1468.0819 661.1162,1468.0819 661.1162,950.7767"/>
    <polygon points="142.6772,949.6428 142.6772,1469.2157 662.2501,1469.2157 662.2501,949.6428"/>
    <polygon points="656.5567,949.6428 656.5567,1076.636 783.5498,1076.636 783.5498,949.6428"/>
    <polygon points="661.0921,954.1783 779.0143,954.1783 779.0143,1072.1005 661.0921,1072.1005"/>
    <polygon points="662.2259,955.3121 777.8805,955.3121 777.8805,1070.9667 662.2259,1070.9667"/>
    <polygon points="780.1482,953.0444 780.1482,1073.2344 659.9582,1073.2344 659.9582,953.0444"/>
    <polygon points="781.2728,953.0444 976.4409,953.0444 976.4409,1148.2125 781.2728,1148.2125"/>
    <polygon points="781.2821,951.9105 658.8244,951.9105 658.8244,1074.3682 781.2821,1074.3682"/>
    <polygon points="780.1482,1074.3625 780.1482,1101.8712 752.6396,1101.8712 752.6396,1074.3625"/>
    <polygon points="782.4159,1075.5021 782.4159,950.7767 657.6905,950.7767 657.6905,1075.5021"/>
    <polygon points="783.5498,1099.6013 731.537,1099.6013 731.537,1151.6141 783.5498,1151.6141"/>
    <polygon points="782.4159,1100.7351 732.6708,1100.7351 732.6708,1150.4802 782.4159,1150.4802"/>
    <polygon points="781.2821,1103.005 781.2821,1073.2287 751.5057,1073.2287 751.5057,1103.005"/>
    <polygon points="779.0143,1104.1367 779.0143,1147.0787 736.0724,1147.0787 736.0724,1104.1367"/>
    <polygon points="783.5498,1105.2727 783.5498,1070.961 749.238,1070.961 749.238,1105.2727"/>
    <polygon points="753.7734,1100.7373 753.7734,1075.4964 779.0143,1075.4964 779.0143,1100.7373"/>
    <polygon points="750.3719,1104.1389 782.4159,1104.1389 782.4159,1072.0948 750.3719,1072.0948"/>
    <polygon points="753.7748,1093.1988 753.7748,1072.0948 732.6708,1072.0948 732.6708,1093.1988"/>
    <polygon points="751.5071,1090.9311 734.9385,1090.9311 734.9385,1074.3625 751.5071,1074.3625"/>
    <polygon points="737.2062,1088.6634 737.2062,1076.6303 749.2394,1076.6303 749.2394,1088.6634"/>
    <polygon points="731.537,1094.3327 754.9086,1094.3327 754.9086,1070.961 731.537,1070.961"/>
    <polygon points="733.8047,1101.869 733.8047,1149.3464 781.2821,1149.3464 781.2821,1101.869"/>
    <polygon points="734.9385,1103.0028 780.1482,1103.0028 780.1482,1148.2125 734.9385,1148.2125"/>
    <polygon points="736.0724,1075.4964 750.3732,1075.4964 750.3732,1089.7972 736.0724,1089.7972"/>
    <polygon points="733.8082,1074.3625 733.8082,1148.2125 659.9582,1148.2125 659.9582,1074.3625"/>
    <polygon points="733.8047,1073.2287 733.8047,1092.0649 752.6409,1092.0649 752.6409,1073.2287"/>
    <polygon points="734.9421,1073.2287 658.8244,1073.2287 658.8244,1149.3464 734.9421,1149.3464"/>
    <polygon points="736.0759,1072.0948 657.6905,1072.0948 657.6905,1150.4802 736.0759,1150.4802"/>
    <polygon points="754.9073,1076.6303 777.8805,1076.6303 777.8805,1099.6034 754.9073,1099.6034"/>
    <polygon points="777.8805,1145.9448 737.2062,1145.9448 737.2062,1105.2706 777.8805,1105.2706"/>
    <polygon points="780.139,1149.3464 977.5748,1149.3464 977.5748,951.9105 780.139,951.9105"/>
    <polygon points="779.0051,1150.4802 978.7087,1150.4802 978.7087,950.7767 779.0051,950.7767"/>
    <polygon points="737.2098,1151.6141 737.2098,1070.961 656.5567,1070.961 656.5567,1151.6141"/>
    <polygon points="732.6743,1147.0787 661.0921,1147.0787 661.0921,1075.4964 732.6743,1075.4964"/>
    <polygon points="662.2259,1145.9448 662.2259,1076.6303 731.5405,1076.6303 731.5405,1145.9448"/>
    <polygon points="662.2259,1151.5992 974.1732,1151.5992 974.1732,1463.5465 662.2259,1463.5465"/>
    <polygon points="974.1732,1145.9448 783.5406,1145.9448 783.5406,955.3121 974.1732,955.3121"/>
    <polygon points="979.8425,1145.9299 656.5567,1145.9299 656.5567,1469.2157 979.8425,1469.2157"/>
    <polygon points="975.3071,954.1783 975.3071,1147.0787 782.4067,1147.0787 782.4067,954.1783"/>
    <polygon points="979.8425,949.6428 777.8713,949.6428 777.8713,1151.6141 979.8425,1151.6141"/>
    <polygon points="975.3071,1464.6803 661.0921,1464.6803 661.0921,1150.4653 975.3071,1150.4653"/>
    <polygon points="976.4409,1465.8142 659.9582,1465.8142 659.9582,1149.3315 976.4409,1149.3315"/>
    <polygon points="658.8485,1465.8142 146.0787,1465.8142 146.0787,953.0444 658.8485,953.0444"/>
    <polygon points="658.8244,1466.948 977.5748,1466.948 977.5748,1148.1976 658.8244,1148.1976"/>
    <polygon points="657.6905,1468.0819 978.7087,1468.0819 978.7087,1147.0637 657.6905,1147.0637"/>
    <polygon points="148.3465,1463.5465 148.3465,955.3121 656.5808,955.3121 656.5808,1463.5465"/>
    <polygon points="144.9449,1466.948 659.9824,1466.948 659.9824,951.9105 144.9449,951.9105"/>
    <polygon points="148.3465,123.8551 974.1732,123.8551 974.1732,949.6819 148.3465,949.6819"/>
    <polygon points="146.0787,121.5874 976.4409,121.5874 976.4409,951.9496 146.0787,951.9496"/>
    <polygon points="142.6772,118.1858 142.6772,955.3512 979.8425,955.3512 979.8425,118.1858"/>
    <polygon points="978.7087,119.3197 143.811,119.3197 143.811,954.2173 978.7087,954.2173"/>
  </g>
</svg>
